<svg width="120" height="120" viewBox="0 0 120 120" fill="none" xmlns="http://www.w3.org/2000/svg">
<g clip-path="url(#clip0_1269_11269)">
<rect width="120" height="120" rx="60" fill="white"/>
<path d="M60 60C56.9062 60 54.2578 58.8984 52.0547 56.6953C49.8516 54.4922 48.75 51.8438 48.75 48.75C48.75 45.6562 49.8516 43.0078 52.0547 40.8047C54.2578 38.6016 56.9062 37.5 60 37.5C63.0938 37.5 65.7422 38.6016 67.9453 40.8047C70.1484 43.0078 71.25 45.6562 71.25 48.75C71.25 51.8438 70.1484 54.4922 67.9453 56.6953C65.7422 58.8984 63.0938 60 60 60ZM37.5 76.875V74.625C37.5 73.0312 37.9102 71.5664 38.7305 70.2305C39.5508 68.8945 40.6406 67.875 42 67.1719C44.9062 65.7188 47.8594 64.6289 50.8594 63.9023C53.8594 63.1758 56.9062 62.8125 60 62.8125C63.0938 62.8125 66.1406 63.1758 69.1406 63.9023C72.1406 64.6289 75.0938 65.7188 78 67.1719C79.3594 67.875 80.4492 68.8945 81.2695 70.2305C82.0898 71.5664 82.5 73.0312 82.5 74.625V76.875C82.5 78.4219 81.9492 79.7461 80.8477 80.8477C79.7461 81.9492 78.4219 82.5 76.875 82.5H43.125C41.5781 82.5 40.2539 81.9492 39.1523 80.8477C38.0508 79.7461 37.5 78.4219 37.5 76.875Z" fill="#E6E6E6"/>
</g>
<defs>
<clipPath id="clip0_1269_11269">
<rect width="120" height="120" rx="60" fill="white"/>
</clipPath>
</defs>
</svg>
