<svg width="21" height="19" viewBox="0 0 21 19" fill="none" xmlns="http://www.w3.org/2000/svg">
<path d="M19.6982 9.96493H12.7663C12.4633 9.96493 12.2164 10.2119 12.2164 10.5148C12.2164 10.669 12.2819 10.808 12.3842 10.9083L17.2653 15.7894C17.3168 15.8448 17.3793 15.889 17.4487 15.9192C17.5181 15.9495 17.5929 15.9651 17.6686 15.965C17.7589 15.9652 17.8479 15.9432 17.9277 15.9008C18.0074 15.8583 18.0755 15.7969 18.1258 15.7219C19.3259 14.3289 20.0976 12.5598 20.2366 10.6131C20.2442 10.5809 20.2481 10.5478 20.2481 10.5147C20.2481 10.4425 20.2339 10.371 20.2063 10.3043C20.1787 10.2375 20.1382 10.1769 20.0871 10.1259C20.036 10.0748 19.9754 10.0343 19.9087 10.0067C19.8419 9.97908 19.7704 9.96489 19.6982 9.96493ZM10.6729 0C10.37 0.00185214 10.125 0.246952 10.125 0.549838V8.25355C10.125 8.55841 10.37 8.80536 10.6729 8.80536H18.3786C18.6816 8.80536 18.9284 8.55841 18.9284 8.25355C18.6564 3.82009 15.1084 0.272079 10.6729 0Z" fill="#F49E10"/>
<path d="M14.9089 15.3388L9.22517 9.65508C9.12873 9.55667 9.07088 9.41968 9.07088 9.27114L9.06885 1.24324C9.06889 1.17127 9.05475 1.1 9.02724 1.0335C8.99972 0.966998 8.95936 0.906576 8.90847 0.855687C8.85758 0.804798 8.79716 0.76444 8.73066 0.736922C8.66416 0.709403 8.59289 0.695264 8.52092 0.695313C3.9041 0.977023 0.248047 4.81243 0.248047 9.49882C0.248047 14.3703 4.19742 18.3215 9.06885 18.3215C11.2914 18.3215 13.321 17.4997 14.8722 16.1433C14.9334 16.0921 14.9825 16.028 15.0162 15.9557C15.0499 15.8833 15.0673 15.8045 15.0671 15.7247C15.067 15.5803 15.0102 15.4417 14.9089 15.3388Z" fill="#F49E10"/>
</svg>
