<svg width="17" height="18" viewBox="0 0 17 18" fill="none" xmlns="http://www.w3.org/2000/svg">
<path d="M12.1673 9.20833C9.98482 9.20833 8.20898 10.9842 8.20898 13.1667C8.20898 15.3492 9.98482 17.125 12.1673 17.125C14.3498 17.125 16.1257 15.3492 16.1257 13.1667C16.1257 10.9842 14.3498 9.20833 12.1673 9.20833ZM9.45898 13.1667C9.45987 12.4486 9.74549 11.7603 10.2532 11.2526C10.7609 10.7448 11.4493 10.4592 12.1673 10.4583C12.6873 10.4583 13.169 10.6125 13.5823 10.8683L9.86898 14.5817C9.60306 14.1575 9.46105 13.6673 9.45898 13.1667ZM12.1673 15.875C11.6666 15.8733 11.1764 15.7313 10.7523 15.465L14.4657 11.7517C14.7207 12.165 14.8757 12.6467 14.8757 13.1667C14.8748 13.8847 14.5891 14.5731 14.0814 15.0808C13.5737 15.5885 12.8853 15.8741 12.1673 15.875ZM8.00065 8.79167C5.81815 8.79167 4.04232 7.01583 4.04232 4.83333C4.04232 2.65083 5.81815 0.875 8.00065 0.875C10.1832 0.875 11.959 2.65083 11.959 4.83333C11.959 7.01583 10.1832 8.79167 8.00065 8.79167ZM6.95898 13.1667C6.95898 14.1833 7.25065 15.1333 7.76732 15.9417V16.5C7.76732 16.8417 7.48398 17.125 7.14232 17.125H3.00065C1.73398 17.125 0.708984 16.1 0.708984 14.8333C0.708984 12.1917 2.85898 10.0417 5.50065 10.0417H7.16732C7.42565 10.0417 7.65065 10.2 7.74232 10.425C7.24232 11.225 6.95898 12.1667 6.95898 13.1667Z" fill="#009ED4"/>
</svg>
