<svg width="20" height="20" viewBox="0 0 20 20" fill="none" xmlns="http://www.w3.org/2000/svg">
<path d="M19.75 3.5V7.25H0.25V3.5C0.25 2.90326 0.487053 2.33097 0.90901 1.90901C1.33097 1.48705 1.90326 1.25 2.5 1.25H5.25V1C5.25 0.801088 5.32902 0.610322 5.46967 0.46967C5.61032 0.329018 5.80109 0.25 6 0.25C6.19891 0.25 6.38968 0.329018 6.53033 0.46967C6.67098 0.610322 6.75 0.801088 6.75 1V1.25H13.25V1C13.25 0.801088 13.329 0.610322 13.4697 0.46967C13.6103 0.329018 13.8011 0.25 14 0.25C14.1989 0.25 14.3897 0.329018 14.5303 0.46967C14.671 0.610322 14.75 0.801088 14.75 1V1.25H17.5C18.0967 1.25 18.669 1.48705 19.091 1.90901C19.5129 2.33097 19.75 2.90326 19.75 3.5ZM19.75 8.75V17.5C19.75 18.0967 19.5129 18.669 19.091 19.091C18.669 19.5129 18.0967 19.75 17.5 19.75H2.5C1.90326 19.75 1.33097 19.5129 0.90901 19.091C0.487053 18.669 0.25 18.0967 0.25 17.5V8.75H19.75ZM12.53 12C12.3894 11.8595 12.1988 11.7807 12 11.7807C11.8012 11.7807 11.6106 11.8595 11.47 12L9 14.44L7.53 13C7.47384 12.9012 7.39598 12.8165 7.30229 12.7522C7.20861 12.688 7.10154 12.6458 6.98918 12.629C6.87682 12.6121 6.7621 12.621 6.65368 12.655C6.54527 12.689 6.44599 12.7472 6.36335 12.8252C6.28071 12.9031 6.21686 12.9988 6.17662 13.1051C6.13638 13.2113 6.12081 13.3253 6.13109 13.4385C6.14136 13.5517 6.1772 13.661 6.23591 13.7583C6.29462 13.8555 6.37467 13.9382 6.47 14L8.47 16C8.61063 16.1405 8.80125 16.2193 9 16.2193C9.19875 16.2193 9.38937 16.1405 9.53 16L12.53 13C12.653 12.8625 12.721 12.6845 12.721 12.5C12.721 12.3155 12.653 12.1375 12.53 12Z" fill="#F49E10"/>
</svg>
