<svg width="14" height="18" viewBox="0 0 14 18" fill="none" xmlns="http://www.w3.org/2000/svg">
<path d="M11.1678 0.71875H2.83449C2.15739 0.73406 1.51399 1.01723 1.04535 1.50618C0.576715 1.99512 0.321077 2.64995 0.334487 3.32708V15.5604C0.332778 15.8933 0.426957 16.2196 0.605768 16.5004C0.784578 16.7812 1.04046 17.0045 1.34282 17.1438C1.63346 17.2666 1.95299 17.3043 2.26425 17.2527C2.57552 17.2011 2.86573 17.0621 3.10115 16.8521L7.00115 13.3021L10.9012 16.8521C11.1978 17.1283 11.5875 17.2829 11.9928 17.2854C12.2223 17.2835 12.449 17.2353 12.6595 17.1438C12.9619 17.0045 13.2177 16.7812 13.3965 16.5004C13.5754 16.2196 13.6695 15.8933 13.6678 15.5604V3.32708C13.6812 2.64995 13.4256 1.99512 12.957 1.50618C12.4883 1.01723 11.8449 0.73406 11.1678 0.71875Z" fill="#009ED4"/>
</svg>
