<svg width="16" height="16" viewBox="0 0 16 16" fill="none" xmlns="http://www.w3.org/2000/svg">
<path d="M8 0.5C6.51664 0.5 5.06659 0.939867 3.83323 1.76398C2.59986 2.58809 1.63856 3.75943 1.07091 5.12987C0.50325 6.50032 0.354725 8.00832 0.644114 9.46318C0.933503 10.918 1.64781 12.2544 2.6967 13.3033C3.7456 14.3522 5.08197 15.0665 6.53683 15.3559C7.99168 15.6453 9.49968 15.4968 10.8701 14.9291C12.2406 14.3614 13.4119 13.4001 14.236 12.1668C15.0601 10.9334 15.5 9.48336 15.5 8C15.4977 6.0116 14.7067 4.1053 13.3007 2.69929C11.8947 1.29328 9.98841 0.502346 8 0.5ZM10.5275 10.5275C10.3996 10.6553 10.2262 10.7271 10.0455 10.7271C9.86466 10.7271 9.69127 10.6553 9.56341 10.5275L7.51796 8.48204C7.39008 8.35421 7.31822 8.18081 7.31818 8V3.90909C7.31818 3.72826 7.39002 3.55484 7.51788 3.42697C7.64575 3.29911 7.81917 3.22727 8 3.22727C8.18083 3.22727 8.35425 3.29911 8.48212 3.42697C8.60999 3.55484 8.68182 3.72826 8.68182 3.90909V7.71773L10.5275 9.56341C10.6553 9.69127 10.7271 9.86466 10.7271 10.0455C10.7271 10.2262 10.6553 10.3996 10.5275 10.5275Z" fill="#B04759"/>
</svg>
