<svg width="18" height="18" viewBox="0 0 18 18" fill="none" xmlns="http://www.w3.org/2000/svg">
<path d="M5.2487 1.03255C5.2487 0.572315 4.8756 0.199219 4.41536 0.199219C3.95513 0.199219 3.58203 0.572315 3.58203 1.03255V1.86589C3.58203 2.32612 3.95513 2.69922 4.41536 2.69922C4.8756 2.69922 5.2487 2.32612 5.2487 1.86589V1.03255Z" fill="#818397"/>
<path d="M14.4167 1.03255C14.4167 0.572315 14.0436 0.199219 13.5833 0.199219C13.1231 0.199219 12.75 0.572315 12.75 1.03255V1.86589C12.75 2.32612 13.1231 2.69922 13.5833 2.69922C14.0436 2.69922 14.4167 2.32612 14.4167 1.86589V1.03255Z" fill="#818397"/>
<path d="M0.664062 6.44922V16.0326C0.664063 16.4746 0.839657 16.8985 1.15222 17.2111C1.46478 17.5236 1.8887 17.6992 2.33073 17.6992H15.6641C16.1061 17.6992 16.53 17.5236 16.8426 17.2111C17.1551 16.8985 17.3307 16.4746 17.3307 16.0326V6.44922H0.664062ZM5.66406 14.7826C5.66406 15.0036 5.57627 15.2155 5.41998 15.3718C5.2637 15.5281 5.05174 15.6159 4.83073 15.6159H3.9974C3.77638 15.6159 3.56442 15.5281 3.40814 15.3718C3.25186 15.2155 3.16406 15.0036 3.16406 14.7826V13.9492C3.16406 13.7282 3.25186 13.5162 3.40814 13.36C3.56442 13.2037 3.77638 13.1159 3.9974 13.1159H4.83073C5.05174 13.1159 5.2637 13.2037 5.41998 13.36C5.57627 13.5162 5.66406 13.7282 5.66406 13.9492V14.7826ZM5.66406 10.1992C5.66406 10.4202 5.57627 10.6322 5.41998 10.7885C5.2637 10.9448 5.05174 11.0326 4.83073 11.0326H3.9974C3.77638 11.0326 3.56442 10.9448 3.40814 10.7885C3.25186 10.6322 3.16406 10.4202 3.16406 10.1992V9.36589C3.16406 9.14487 3.25186 8.93291 3.40814 8.77663C3.56442 8.62035 3.77638 8.53255 3.9974 8.53255H4.83073C5.05174 8.53255 5.2637 8.62035 5.41998 8.77663C5.57627 8.93291 5.66406 9.14487 5.66406 9.36589V10.1992ZM10.2474 14.7826C10.2474 15.0036 10.1596 15.2155 10.0033 15.3718C9.84704 15.5281 9.63508 15.6159 9.41406 15.6159H8.58073C8.35972 15.6159 8.14775 15.5281 7.99147 15.3718C7.83519 15.2155 7.7474 15.0036 7.7474 14.7826V13.9492C7.7474 13.7282 7.83519 13.5162 7.99147 13.36C8.14775 13.2037 8.35972 13.1159 8.58073 13.1159H9.41406C9.63508 13.1159 9.84704 13.2037 10.0033 13.36C10.1596 13.5162 10.2474 13.7282 10.2474 13.9492V14.7826ZM10.2474 10.1992C10.2474 10.4202 10.1596 10.6322 10.0033 10.7885C9.84704 10.9448 9.63508 11.0326 9.41406 11.0326H8.58073C8.35972 11.0326 8.14775 10.9448 7.99147 10.7885C7.83519 10.6322 7.7474 10.4202 7.7474 10.1992V9.36589C7.7474 9.14487 7.83519 8.93291 7.99147 8.77663C8.14775 8.62035 8.35972 8.53255 8.58073 8.53255H9.41406C9.63508 8.53255 9.84704 8.62035 10.0033 8.77663C10.1596 8.93291 10.2474 9.14487 10.2474 9.36589V10.1992ZM14.8307 14.7826C14.8307 15.0036 14.7429 15.2155 14.5867 15.3718C14.4304 15.5281 14.2184 15.6159 13.9974 15.6159H13.1641C12.943 15.6159 12.7311 15.5281 12.5748 15.3718C12.4185 15.2155 12.3307 15.0036 12.3307 14.7826V13.9492C12.3307 13.7282 12.4185 13.5162 12.5748 13.36C12.7311 13.2037 12.943 13.1159 13.1641 13.1159H13.9974C14.2184 13.1159 14.4304 13.2037 14.5867 13.36C14.7429 13.5162 14.8307 13.7282 14.8307 13.9492V14.7826ZM14.8307 10.1992C14.8307 10.4202 14.7429 10.6322 14.5867 10.7885C14.4304 10.9448 14.2184 11.0326 13.9974 11.0326H13.1641C12.943 11.0326 12.7311 10.9448 12.5748 10.7885C12.4185 10.6322 12.3307 10.4202 12.3307 10.1992V9.36589C12.3307 9.14487 12.4185 8.93291 12.5748 8.77663C12.7311 8.62035 12.943 8.53255 13.1641 8.53255H13.9974C14.2184 8.53255 14.4304 8.62035 14.5867 8.77663C14.7429 8.93291 14.8307 9.14487 14.8307 9.36589V10.1992ZM17.3307 5.61589V3.11589C17.3307 2.67386 17.1551 2.24993 16.8426 1.93737C16.53 1.62481 16.1061 1.44922 15.6641 1.44922H15.2474V1.86589C15.2474 2.78505 14.4999 3.53255 13.5807 3.53255C12.6616 3.53255 11.9141 2.78505 11.9141 1.86589V1.44922H6.08073V1.86589C6.08073 2.78505 5.33323 3.53255 4.41406 3.53255C3.4949 3.53255 2.7474 2.78505 2.7474 1.86589V1.44922H2.33073C1.8887 1.44922 1.46478 1.62481 1.15222 1.93737C0.839657 2.24993 0.664063 2.67386 0.664062 3.11589V5.61589H17.3307Z" fill="#818397"/>
</svg>
