<svg width="40" height="40" viewBox="0 0 40 40" fill="none" xmlns="http://www.w3.org/2000/svg">
<rect width="40" height="40" rx="20" fill="#FEF5E7"/>
<path d="M26.3 13.7H25.4V11.9C25.4 11.6613 25.3052 11.4324 25.1364 11.2636C24.9676 11.0948 24.7387 11 24.5 11C24.2613 11 24.0324 11.0948 23.8636 11.2636C23.6948 11.4324 23.6 11.6613 23.6 11.9V13.7H16.4V11.9C16.4 11.6613 16.3052 11.4324 16.1364 11.2636C15.9676 11.0948 15.7387 11 15.5 11C15.2613 11 15.0324 11.0948 14.8636 11.2636C14.6948 11.4324 14.6 11.6613 14.6 11.9V13.7H13.7C12.9839 13.7 12.2972 13.9845 11.7908 14.4908C11.2845 14.9972 11 15.6839 11 16.4V17.3H29V16.4C29 15.6839 28.7155 14.9972 28.2092 14.4908C27.7028 13.9845 27.0161 13.7 26.3 13.7ZM11 26.3C11 27.0161 11.2845 27.7028 11.7908 28.2092C12.2972 28.7155 12.9839 29 13.7 29H26.3C27.0161 29 27.7028 28.7155 28.2092 28.2092C28.7155 27.7028 29 27.0161 29 26.3V19.1H11V26.3Z" fill="#F49E10"/>
</svg>
