<svg width="16" height="16" viewBox="0 0 16 16" fill="none" xmlns="http://www.w3.org/2000/svg">
<path d="M13.25 2.75H12.5V1.25C12.5 1.05109 12.421 0.860322 12.2803 0.71967C12.1397 0.579018 11.9489 0.5 11.75 0.5C11.5511 0.5 11.3603 0.579018 11.2197 0.71967C11.079 0.860322 11 1.05109 11 1.25V2.75H5V1.25C5 1.05109 4.92098 0.860322 4.78033 0.71967C4.63968 0.579018 4.44891 0.5 4.25 0.5C4.05109 0.5 3.86032 0.579018 3.71967 0.71967C3.57902 0.860322 3.5 1.05109 3.5 1.25V2.75H2.75C2.15326 2.75 1.58097 2.98705 1.15901 3.40901C0.737053 3.83097 0.5 4.40326 0.5 5V5.75H15.5V5C15.5 4.40326 15.2629 3.83097 14.841 3.40901C14.419 2.98705 13.8467 2.75 13.25 2.75ZM0.5 13.25C0.5 13.8467 0.737053 14.419 1.15901 14.841C1.58097 15.2629 2.15326 15.5 2.75 15.5H13.25C13.8467 15.5 14.419 15.2629 14.841 14.841C15.2629 14.419 15.5 13.8467 15.5 13.25V7.25H0.5V13.25Z" fill="#000116"/>
</svg>
