<svg width="17" height="15" viewBox="0 0 17 15" fill="none" xmlns="http://www.w3.org/2000/svg">
<path d="M10.5417 0.222656H1.6875C0.876921 0.222656 0.222656 0.876921 0.222656 1.6875V7.54687C0.222656 8.35739 0.876921 9.01172 1.6875 9.01172H2.17578V10.4766C2.17578 10.8293 2.54105 11.0848 2.89844 10.9062C2.9082 10.8965 2.92777 10.8965 2.93753 10.8867C5.6236 9.08542 5.02162 9.48704 5.62308 9.08981C5.70117 9.04098 5.78906 9.01172 5.88672 9.01172H10.5417C11.3522 9.01172 12.0065 8.35739 12.0065 7.54687V1.6875C12.0065 0.876921 11.3522 0.222656 10.5417 0.222656ZM6.63542 6.08203H2.66406C2.02041 6.08203 2.01777 5.10547 2.66406 5.10547H6.63542C7.27907 5.10547 7.28171 6.08203 6.63542 6.08203ZM9.5651 4.12891H2.66406C2.02041 4.12891 2.01777 3.15234 2.66406 3.15234H9.5651C10.2088 3.15234 10.2114 4.12891 9.5651 4.12891Z" fill="#686A82"/>
<path d="M15.4245 4.12891H12.9831V7.54688C12.9831 8.89453 11.8893 9.98828 10.5417 9.98828H6.0332L5.10547 10.6035V11.4531C5.10547 12.2636 5.75973 12.918 6.57031 12.918H11.3717L14.1744 14.7929C14.557 15.0053 14.9362 14.747 14.9362 14.3828V12.918H15.4245C16.2351 12.918 16.8893 12.2636 16.8893 11.4531V5.59375C16.8893 4.7832 16.2351 4.12891 15.4245 4.12891Z" fill="#686A82"/>
</svg>
