<svg width="16" height="16" viewBox="0 0 16 16" fill="none" xmlns="http://www.w3.org/2000/svg">
<path d="M8 0.765625C6.51664 0.765625 5.06659 1.20549 3.83323 2.0296C2.59986 2.85371 1.63856 4.02505 1.07091 5.3955C0.50325 6.76594 0.354725 8.27394 0.644114 9.7288C0.933503 11.1837 1.64781 12.52 2.6967 13.5689C3.7456 14.6178 5.08197 15.3321 6.53683 15.6215C7.99168 15.9109 9.49968 15.7624 10.8701 15.1947C12.2406 14.6271 13.4119 13.6658 14.236 12.4324C15.0601 11.199 15.5 9.74898 15.5 8.26562C15.4977 6.27722 14.7067 4.37093 13.3007 2.96491C11.8947 1.5589 9.98841 0.767971 8 0.765625ZM10.5275 10.7931C10.3996 10.9209 10.2262 10.9928 10.0455 10.9928C9.86466 10.9928 9.69127 10.9209 9.56341 10.7931L7.51796 8.74767C7.39008 8.61983 7.31822 8.44644 7.31818 8.26562V4.17472C7.31818 3.99389 7.39002 3.82046 7.51788 3.6926C7.64575 3.56473 7.81917 3.4929 8 3.4929C8.18083 3.4929 8.35425 3.56473 8.48212 3.6926C8.60999 3.82046 8.68182 3.99389 8.68182 4.17472V7.98335L10.5275 9.82903C10.6553 9.95689 10.7271 10.1303 10.7271 10.3111C10.7271 10.4919 10.6553 10.6653 10.5275 10.7931Z" fill="#818397"/>
</svg>
