<svg width="48" height="48" viewBox="0 0 48 48" fill="none" xmlns="http://www.w3.org/2000/svg">
<g clip-path="url(#clip0_3131_4498)">
<path d="M6.68945 38.0742V45.4984C6.68944 45.5618 6.70192 45.6246 6.72619 45.6832C6.75045 45.7418 6.78602 45.795 6.83087 45.8399C6.87571 45.8847 6.92895 45.9203 6.98754 45.9445C7.04614 45.9688 7.10894 45.9813 7.17236 45.9813H40.8286C40.892 45.9813 40.9548 45.9688 41.0134 45.9445C41.072 45.9203 41.1253 45.8847 41.1701 45.8399C41.2149 45.795 41.2505 45.7418 41.2748 45.6832C41.299 45.6246 41.3115 45.5618 41.3115 45.4984V38.0742H6.68945Z" fill="#FE9901"/>
<path d="M11.1554 45.4984V38.168H6.68945V45.4984C6.68944 45.5618 6.70192 45.6246 6.72619 45.6832C6.75045 45.7418 6.78602 45.795 6.83087 45.8399C6.87571 45.8847 6.92895 45.9203 6.98754 45.9445C7.04614 45.9688 7.10894 45.9813 7.17236 45.9813H11.6383C11.5749 45.9813 11.5121 45.9688 11.4535 45.9445C11.3949 45.9203 11.3417 45.8847 11.2968 45.8399C11.252 45.795 11.2164 45.7418 11.1922 45.6832C11.1679 45.6246 11.1554 45.5618 11.1554 45.4984Z" fill="#FB8801"/>
<path d="M11.011 15.494C11.1373 15.5458 11.206 15.683 11.179 15.8168L9.62148 23.5203L16.5135 28.6215L19.3395 21.6186L13.6434 15.1646C13.5521 15.0612 13.5425 14.906 13.6271 14.7971C14.0817 14.2124 14.2416 13.4106 13.961 12.6442C13.5989 11.6554 12.5709 11.0457 11.53 11.2049C10.186 11.4104 9.35411 12.7245 9.69601 14.0007C9.88426 14.7032 10.3864 15.2377 11.011 15.494Z" fill="#FEE45A"/>
<path d="M11.011 15.4934C11.1372 15.5452 11.206 15.6824 11.179 15.8162L9.64192 23.4183L10.9635 24.3965L12.8209 15.2104C12.8479 15.0766 12.7792 14.9394 12.6529 14.8876C12.0282 14.6314 11.5261 14.0968 11.3379 13.3944C11.117 12.57 11.3864 11.7303 11.9668 11.1833C11.8209 11.1756 11.6745 11.1827 11.53 11.2043C10.186 11.4099 9.35411 12.724 9.69601 14.0001C9.88417 14.7026 10.3863 15.2371 11.011 15.4934ZM34.3576 15.1619L28.6597 21.6179L31.4857 28.6209L38.3777 23.5196L36.8207 15.8191C36.7934 15.6841 36.8623 15.5451 36.9897 15.4927C37.6505 15.2211 38.1738 14.638 38.3332 13.8741C38.5624 12.775 37.9205 11.655 36.8561 11.2978C35.6196 10.8829 34.3083 11.5998 33.9759 12.8405C33.7869 13.5458 33.9565 14.2626 34.3729 14.7975C34.457 14.9056 34.4481 15.0594 34.3576 15.1619Z" fill="#FEDF30"/>
<path d="M34.3589 15.1657L28.7305 21.5432L29.4025 23.2084L36.2109 15.494C36.3014 15.3915 36.3103 15.2376 36.2262 15.1297C35.8097 14.5948 35.6401 13.878 35.8291 13.1727C36.0444 12.3693 36.6704 11.786 37.4206 11.5869C37.2477 11.4652 37.058 11.3692 36.8576 11.3017C35.621 10.8868 34.3097 11.6037 33.9773 12.8444C33.7883 13.5497 33.958 14.2665 34.3743 14.8014C34.4583 14.9094 34.4494 15.0632 34.3589 15.1657ZM45.5215 15.9157C44.485 16.0232 43.6466 16.8583 43.5343 17.8943C43.4909 18.295 43.5538 18.677 43.6978 19.0162C43.7843 19.2198 43.7167 19.456 43.5389 19.5875L31.4507 28.5349L35.3389 38.1699H41.3118L45.1407 20.7575C45.1653 20.6457 45.2289 20.5463 45.3202 20.4771C45.4114 20.4079 45.5243 20.3734 45.6387 20.3798C45.7815 20.3877 45.9248 20.3817 46.0665 20.3622C47.1025 20.2201 47.9172 19.3569 47.9945 18.3141C48.098 16.9198 46.9238 15.7703 45.5215 15.9157Z" fill="#FED402"/>
<path d="M45.5202 15.9148C44.4837 16.0222 43.6453 16.8573 43.5331 17.8934C43.4897 18.2941 43.5526 18.6761 43.6966 19.0154C43.783 19.2189 43.7154 19.4551 43.5377 19.5867L31.5273 28.4763L32.0718 29.8253L44.9523 20.2915C45.13 20.16 45.1975 19.9237 45.1112 19.7202C44.9672 19.3809 44.9043 18.999 44.9477 18.5982C45.0599 17.5621 45.8983 16.7271 46.9348 16.6196C47.0942 16.6031 47.2503 16.604 47.4022 16.6194C46.9434 16.1249 46.2639 15.8377 45.5202 15.9148Z" fill="#FAC600"/>
<path d="M12.6619 38.169L16.5501 28.534L4.46183 19.5867C4.28408 19.4551 4.21658 19.2189 4.30293 19.0154C4.44693 18.6761 4.50983 18.2941 4.46643 17.8934C4.3543 16.8573 3.51571 16.0222 2.47912 15.9148C1.07652 15.7694 -0.0978848 16.9196 0.0064589 18.3146C0.0843652 19.3572 0.89924 20.2197 1.93508 20.3614C2.0803 20.3813 2.2229 20.3865 2.36212 20.3789C2.47646 20.3725 2.58938 20.4069 2.68063 20.4762C2.77188 20.5454 2.83551 20.6448 2.86012 20.7567L6.68896 38.169H12.6619Z" fill="#FED402"/>
<path d="M4.05317 19.6787C4.02855 19.5669 3.96491 19.4674 3.87367 19.3982C3.78242 19.329 3.66952 19.2946 3.55517 19.301C3.41259 19.3088 3.2696 19.3029 3.12814 19.2835C2.0923 19.1417 1.27742 18.2791 1.19952 17.2366C1.1678 16.8272 1.24944 16.4169 1.43548 16.0508C0.545891 16.3934 -0.0703278 17.2867 0.00645346 18.3133C0.0843597 19.3559 0.899328 20.2184 1.93508 20.3603C2.0803 20.3802 2.22289 20.3854 2.36211 20.3778C2.47646 20.3714 2.58937 20.4058 2.68062 20.475C2.77187 20.5442 2.8355 20.6437 2.86011 20.7555L6.68895 38.1679H8.25945L4.05317 19.6787Z" fill="#FAC600"/>
<path d="M35.4391 38.1683L25.4995 13.5377C25.464 13.4498 25.4552 13.3535 25.4741 13.2606C25.493 13.1678 25.5388 13.0825 25.6058 13.0155L27.7117 10.9096C27.7565 10.8648 27.7921 10.8116 27.8164 10.753C27.8406 10.6944 27.8531 10.6316 27.8531 10.5682C27.8531 10.5048 27.8406 10.442 27.8164 10.3834C27.7921 10.3248 27.7565 10.2716 27.7117 10.2267L24.3413 6.85634C24.2964 6.81148 24.2432 6.7759 24.1846 6.75162C24.126 6.72734 24.0632 6.71484 23.9998 6.71484C23.9364 6.71484 23.8736 6.72734 23.815 6.75162C23.7564 6.7759 23.7031 6.81148 23.6583 6.85634L20.2879 10.2267C20.243 10.2716 20.2075 10.3248 20.1832 10.3834C20.1589 10.442 20.1464 10.5048 20.1464 10.5682C20.1464 10.6316 20.1589 10.6944 20.1832 10.753C20.2075 10.8116 20.243 10.8648 20.2879 10.9096L22.3938 13.0155C22.4608 13.0825 22.5066 13.1678 22.5255 13.2606C22.5444 13.3535 22.5356 13.4498 22.5001 13.5377L12.5605 38.1683H35.4391Z" fill="#FEE45A"/>
<path d="M24.6688 13.0156L22.5629 10.9097C22.5181 10.8648 22.4825 10.8116 22.4582 10.753C22.4339 10.6944 22.4214 10.6316 22.4214 10.5682C22.4214 10.5048 22.4339 10.442 22.4582 10.3834C22.4825 10.3248 22.5181 10.2715 22.5629 10.2267L25.1373 7.65233L24.3413 6.85629C24.2964 6.81145 24.2432 6.77588 24.1846 6.75161C24.126 6.72734 24.0632 6.71484 23.9998 6.71484C23.9364 6.71484 23.8736 6.72734 23.815 6.75161C23.7565 6.77588 23.7032 6.81145 23.6584 6.85629L20.288 10.2267C20.2431 10.2715 20.2075 10.3248 20.1833 10.3834C20.159 10.442 20.1465 10.5048 20.1465 10.5682C20.1465 10.6316 20.159 10.6944 20.1833 10.753C20.2075 10.8116 20.2431 10.8648 20.288 10.9097L22.3939 13.0156C22.4609 13.0826 22.5067 13.1678 22.5256 13.2607C22.5445 13.3535 22.5357 13.4499 22.5002 13.5378L12.5605 38.1682H14.8356L24.7751 13.5377C24.8106 13.4498 24.8195 13.3535 24.8006 13.2606C24.7817 13.1678 24.7358 13.0826 24.6688 13.0156Z" fill="#FEDF30"/>
<path d="M23.7275 24.827L20.9228 28.7173C20.8819 28.774 20.8598 28.8421 20.8594 28.912C20.859 28.9819 20.8804 29.0502 20.9207 29.1073L23.7253 33.0882C23.8592 33.2781 24.1408 33.2781 24.2746 33.0882L27.0792 29.1073C27.1617 28.9902 27.1609 28.8336 27.0771 28.7173L24.2724 24.827C24.1385 24.641 23.8615 24.641 23.7275 24.827Z" fill="#925CB4"/>
<path d="M23.2674 29.1073C23.2272 29.0502 23.2057 28.9819 23.2061 28.912C23.2065 28.8421 23.2287 28.774 23.2696 28.7173L25.1734 26.0766L24.2725 24.827C24.1385 24.641 23.8615 24.641 23.7275 24.827L20.9228 28.7173C20.8819 28.774 20.8598 28.8421 20.8594 28.912C20.859 28.9819 20.8804 29.0502 20.9207 29.1073L23.7253 33.0882C23.8592 33.2781 24.1408 33.2781 24.2746 33.0882L25.1734 31.8125L23.2674 29.1073Z" fill="#814BA2"/>
<path d="M11.3438 42.6445C11.7321 42.6445 12.0469 42.3297 12.0469 41.9414C12.0469 41.5531 11.7321 41.2383 11.3438 41.2383C10.9554 41.2383 10.6406 41.5531 10.6406 41.9414C10.6406 42.3297 10.9554 42.6445 11.3438 42.6445Z" fill="#FED402"/>
<path d="M16.4062 42.6445C16.7946 42.6445 17.1094 42.3297 17.1094 41.9414C17.1094 41.5531 16.7946 41.2383 16.4062 41.2383C16.0179 41.2383 15.7031 41.5531 15.7031 41.9414C15.7031 42.3297 16.0179 42.6445 16.4062 42.6445Z" fill="#FED402"/>
<path d="M21.4688 42.6445C21.8571 42.6445 22.1719 42.3297 22.1719 41.9414C22.1719 41.5531 21.8571 41.2383 21.4688 41.2383C21.0804 41.2383 20.7656 41.5531 20.7656 41.9414C20.7656 42.3297 21.0804 42.6445 21.4688 42.6445Z" fill="#FED402"/>
<path d="M26.5312 42.6445C26.9196 42.6445 27.2344 42.3297 27.2344 41.9414C27.2344 41.5531 26.9196 41.2383 26.5312 41.2383C26.1429 41.2383 25.8281 41.5531 25.8281 41.9414C25.8281 42.3297 26.1429 42.6445 26.5312 42.6445Z" fill="#FED402"/>
<path d="M31.5938 42.6445C31.9821 42.6445 32.2969 42.3297 32.2969 41.9414C32.2969 41.5531 31.9821 41.2383 31.5938 41.2383C31.2054 41.2383 30.8906 41.5531 30.8906 41.9414C30.8906 42.3297 31.2054 42.6445 31.5938 42.6445Z" fill="#FED402"/>
<path d="M36.6562 42.6445C37.0446 42.6445 37.3594 42.3297 37.3594 41.9414C37.3594 41.5531 37.0446 41.2383 36.6562 41.2383C36.2679 41.2383 35.9531 41.5531 35.9531 41.9414C35.9531 42.3297 36.2679 42.6445 36.6562 42.6445Z" fill="#FED402"/>
<path d="M16.3642 2.22477C16.8599 3.64724 17.4381 4.22549 18.8606 4.72115C19.1342 4.81649 19.1342 5.20246 18.8606 5.29781C17.4381 5.79346 16.8599 6.37171 16.3642 7.79418C16.2689 8.06784 15.8829 8.06784 15.7876 7.79418C15.2919 6.37171 14.7136 5.79346 13.2912 5.29781C13.0175 5.20246 13.0175 4.81649 13.2912 4.72115C14.7136 4.22549 15.2919 3.64724 15.7876 2.22477C15.8829 1.95112 16.2689 1.95112 16.3642 2.22477Z" fill="#FE9901"/>
<path d="M14.583 4.08203C14.2455 4.33403 13.8287 4.53325 13.2912 4.72056C13.0175 4.81591 13.0175 5.20188 13.2912 5.29722C14.7136 5.79288 15.2919 6.37112 15.7876 7.79359C15.8829 8.06725 16.2689 8.06725 16.3642 7.79359C16.5492 7.26278 16.7457 6.84981 16.9932 6.51456C16.5093 5.14488 15.9388 4.56747 14.583 4.08203Z" fill="#FB8801"/>
<path d="M32.3076 4.83024C32.8032 6.25271 33.3815 6.83096 34.8039 7.32662C35.0776 7.42196 35.0776 7.80793 34.8039 7.90327C33.3815 8.39893 32.8032 8.97718 32.3076 10.3996C32.2122 10.6733 31.8263 10.6733 31.7309 10.3996C31.2353 8.97718 30.657 8.39893 29.2345 7.90327C28.9609 7.80793 28.9609 7.42196 29.2345 7.32662C30.657 6.83096 31.2353 6.25271 31.7309 4.83024C31.8264 4.55659 32.2122 4.55659 32.3076 4.83024Z" fill="#FE9901"/>
<path d="M30.5732 6.65234C30.2274 6.92178 29.7979 7.13206 29.2345 7.32828C28.9609 7.42363 28.9609 7.80959 29.2345 7.90494C30.657 8.40059 31.2353 8.97884 31.7309 10.4013C31.8263 10.675 32.2122 10.675 32.3076 10.4013C32.4999 9.8495 32.7053 9.42584 32.9668 9.08366C32.4848 7.71622 31.9173 7.13703 30.5732 6.65234Z" fill="#FB8801"/>
</g>
<defs>
<clipPath id="clip0_3131_4498">
<rect width="48" height="48" fill="white"/>
</clipPath>
</defs>
</svg>
