<svg width="14" height="18" viewBox="0 0 14 18" fill="none" xmlns="http://www.w3.org/2000/svg">
<path d="M12.983 4.94235L9.47801 1.35401C9.05135 0.926515 8.45301 0.670681 7.76968 0.670681H2.72551C1.44384 0.584848 0.333011 1.69568 0.333011 2.97735V14.9398C0.332462 15.2543 0.393999 15.5657 0.514091 15.8563C0.634183 16.1468 0.810467 16.4108 1.03283 16.6331C1.25519 16.8554 1.51925 17.0316 1.80987 17.1516C2.10049 17.2716 2.41193 17.333 2.72635 17.3323H11.273C11.5874 17.333 11.8989 17.2716 12.1895 17.1516C12.4801 17.0316 12.7442 16.8554 12.9665 16.6331C13.1889 16.4108 13.3652 16.1468 13.4853 15.8563C13.6054 15.5657 13.6669 15.2543 13.6663 14.9398V6.56652C13.6663 5.96818 13.4097 5.36985 12.983 4.94235ZM4.43551 7.42068H6.99968C7.34135 7.42068 7.68301 7.67735 7.68301 8.10402C7.68301 8.53152 7.42718 8.78735 6.99968 8.78735H4.43551C4.34543 8.78858 4.25602 8.77175 4.17256 8.73785C4.0891 8.70394 4.01328 8.65365 3.94957 8.58995C3.88587 8.52625 3.83559 8.45043 3.80168 8.36697C3.76778 8.2835 3.75094 8.19409 3.75218 8.10402C3.75218 7.67652 4.09385 7.42068 4.43551 7.42068ZM9.56385 12.2057H4.43551C4.09385 12.2057 3.75218 11.949 3.75218 11.5223C3.75218 11.0957 4.00801 10.839 4.43551 10.839H9.56385C9.90551 10.839 10.2472 11.0948 10.2472 11.5223C10.2472 11.9498 9.90551 12.2057 9.56385 12.2057Z" fill="#B04759"/>
</svg>
