<svg width="17" height="17" viewBox="0 0 17 17" fill="none" xmlns="http://www.w3.org/2000/svg">
<path d="M3.0062 3.41732C3.0062 2.75805 3.20169 2.11358 3.56797 1.56542C3.93424 1.01725 4.45483 0.590013 5.06392 0.337721C5.67301 0.0854286 6.34323 0.0194175 6.98983 0.148035C7.63644 0.276652 8.23038 0.594122 8.69655 1.0603C9.16273 1.52647 9.4802 2.12041 9.60882 2.76702C9.73743 3.41362 9.67142 4.08384 9.41913 4.69293C9.16684 5.30202 8.7396 5.82261 8.19143 6.18888C7.64327 6.55516 6.9988 6.75065 6.33953 6.75065C5.45548 6.75065 4.60763 6.39946 3.98251 5.77434C3.35739 5.14922 3.0062 4.30137 3.0062 3.41732ZM11.3795 9.81732C11.3687 9.74035 11.3312 9.66961 11.2737 9.61732C10.8363 9.20769 10.3209 8.89033 9.75827 8.68417C9.19561 8.478 8.59719 8.38725 7.9987 8.41732H4.66536C1.28203 8.41732 0.0820312 10.8923 0.0820312 13.0173C0.0820312 14.9173 1.09036 15.9173 2.9987 15.9173H7.33203C7.36489 15.9183 7.39757 15.912 7.42779 15.8991C7.45801 15.8861 7.48505 15.8668 7.50703 15.8423C7.55339 15.794 7.58012 15.7301 7.58203 15.6632V14.2507C7.58232 13.9192 7.71421 13.6015 7.9487 13.3673L11.307 9.99232C11.3526 9.94532 11.3785 9.88275 11.3795 9.81732ZM8.83203 14.2507V16.334H10.9154L14.6979 12.5682L12.5987 10.469L8.83203 14.2507ZM16.0887 10.0098L15.1554 9.07649C14.9992 8.92128 14.788 8.83416 14.5679 8.83416C14.3477 8.83416 14.1365 8.92128 13.9804 9.07649L13.1812 9.88482L15.2804 11.984L16.0887 11.1848C16.2437 11.0287 16.3306 10.8177 16.3306 10.5977C16.3306 10.3778 16.2437 10.1659 16.0887 10.0098Z" fill="#B04759"/>
</svg>
