<svg width="20" height="19" viewBox="0 0 20 19" fill="none" xmlns="http://www.w3.org/2000/svg">
<path d="M0 6.15385V5C0.0011196 4.08229 0.366176 3.20248 1.0151 2.55356C1.66402 1.90464 2.54383 1.53958 3.46154 1.53846H4.61538V2.69231C4.61538 3.10033 4.77747 3.49165 5.06599 3.78016C5.35451 4.06868 5.74582 4.23077 6.15385 4.23077C6.56187 4.23077 6.95319 4.06868 7.2417 3.78016C7.53022 3.49165 7.69231 3.10033 7.69231 2.69231V1.53846H12.3077V2.69231C12.3077 3.10033 12.4698 3.49165 12.7583 3.78016C13.0468 4.06868 13.4381 4.23077 13.8462 4.23077C14.2542 4.23077 14.6455 4.06868 14.934 3.78016C15.2225 3.49165 15.3846 3.10033 15.3846 2.69231V1.53846H16.5385C17.4562 1.53958 18.336 1.90464 18.9849 2.55356C19.6338 3.20248 19.9989 4.08229 20 5V6.15385H0ZM5.38462 2.69231C5.38462 2.89632 5.46566 3.09198 5.60992 3.23624C5.75418 3.38049 5.94983 3.46154 6.15385 3.46154C6.35786 3.46154 6.55352 3.38049 6.69777 3.23624C6.84203 3.09198 6.92308 2.89632 6.92308 2.69231V0.769231C6.92308 0.565218 6.84203 0.369561 6.69777 0.225302C6.55352 0.0810437 6.35786 0 6.15385 0C5.94983 0 5.75418 0.0810437 5.60992 0.225302C5.46566 0.369561 5.38462 0.565218 5.38462 0.769231V2.69231ZM13.0769 0.769231V2.69231C13.0769 2.89632 13.158 3.09198 13.3022 3.23624C13.4465 3.38049 13.6421 3.46154 13.8462 3.46154C14.0502 3.46154 14.2458 3.38049 14.3901 3.23624C14.5343 3.09198 14.6154 2.89632 14.6154 2.69231V0.769231C14.6154 0.565218 14.5343 0.369561 14.3901 0.225302C14.2458 0.0810437 14.0502 0 13.8462 0C13.6421 0 13.4465 0.0810437 13.3022 0.225302C13.158 0.369561 13.0769 0.565218 13.0769 0.769231ZM20 6.92308V15C19.9989 15.9177 19.6338 16.7975 18.9849 17.4464C18.336 18.0954 17.4562 18.4604 16.5385 18.4615H3.46154C2.54383 18.4604 1.66402 18.0954 1.0151 17.4464C0.366176 16.7975 0.0011196 15.9177 0 15V6.92308H20ZM12.8104 11.2727H11.2223L10.7308 9.76231C10.6802 9.60841 10.5823 9.47441 10.4511 9.37941C10.3199 9.28441 10.162 9.23327 10 9.23327C9.838 9.23327 9.68014 9.28441 9.54892 9.37941C9.4177 9.47441 9.31981 9.60841 9.26923 9.76231L8.77846 11.2727H7.18962C7.02716 11.2727 6.86886 11.3241 6.73742 11.4195C6.60598 11.515 6.50813 11.6496 6.45791 11.8041C6.40769 11.9586 6.40768 12.1251 6.45787 12.2796C6.50806 12.4341 6.60588 12.5687 6.73731 12.6642L8.02231 13.5977L7.53154 15.1081C7.48132 15.2626 7.4813 15.429 7.53151 15.5836C7.58171 15.7381 7.67955 15.8727 7.81099 15.9682C7.94244 16.0637 8.10074 16.1151 8.26321 16.1151C8.42568 16.1151 8.58397 16.0636 8.71538 15.9681L10 15.0346L11.2846 15.9681C11.416 16.0636 11.5743 16.1151 11.7368 16.1151C11.8993 16.1151 12.0576 16.0637 12.189 15.9682C12.3205 15.8727 12.4183 15.7381 12.4685 15.5836C12.5187 15.429 12.5187 15.2626 12.4685 15.1081L11.9777 13.5977L13.2627 12.6642C13.3941 12.5687 13.4919 12.4341 13.5421 12.2796C13.5923 12.1251 13.5923 11.9586 13.5421 11.8041C13.4919 11.6496 13.394 11.515 13.2626 11.4195C13.1311 11.3241 12.9728 11.2727 12.8104 11.2727Z" fill="#F49E10"/>
</svg>
