<svg width="22" height="20" viewBox="0 0 22 20" fill="none" xmlns="http://www.w3.org/2000/svg">
<path d="M0 6.66667V5.41667C0.0012129 4.42248 0.39669 3.46935 1.09969 2.76636C1.80269 2.06336 2.75581 1.66788 3.75 1.66667H5V2.91667C5 3.35869 5.17559 3.78262 5.48816 4.09518C5.80072 4.40774 6.22464 4.58333 6.66667 4.58333C7.10869 4.58333 7.53262 4.40774 7.84518 4.09518C8.15774 3.78262 8.33333 3.35869 8.33333 2.91667V1.66667H13.3333V2.91667C13.3333 3.35869 13.5089 3.78262 13.8215 4.09518C14.134 4.40774 14.558 4.58333 15 4.58333C15.442 4.58333 15.8659 4.40774 16.1785 4.09518C16.4911 3.78262 16.6667 3.35869 16.6667 2.91667V1.66667H17.9167C18.9109 1.66788 19.864 2.06336 20.567 2.76636C21.27 3.46935 21.6655 4.42248 21.6667 5.41667V6.66667H0ZM5.83333 2.91667C5.83333 3.13768 5.92113 3.34964 6.07741 3.50592C6.23369 3.6622 6.44565 3.75 6.66667 3.75C6.88768 3.75 7.09964 3.6622 7.25592 3.50592C7.4122 3.34964 7.5 3.13768 7.5 2.91667V0.833333C7.5 0.61232 7.4122 0.400358 7.25592 0.244078C7.09964 0.0877973 6.88768 0 6.66667 0C6.44565 0 6.23369 0.0877973 6.07741 0.244078C5.92113 0.400358 5.83333 0.61232 5.83333 0.833333V2.91667ZM14.1667 0.833333V2.91667C14.1667 3.13768 14.2545 3.34964 14.4107 3.50592C14.567 3.6622 14.779 3.75 15 3.75C15.221 3.75 15.433 3.6622 15.5893 3.50592C15.7455 3.34964 15.8333 3.13768 15.8333 2.91667V0.833333C15.8333 0.61232 15.7455 0.400358 15.5893 0.244078C15.433 0.0877973 15.221 0 15 0C14.779 0 14.567 0.0877973 14.4107 0.244078C14.2545 0.400358 14.1667 0.61232 14.1667 0.833333ZM21.6667 7.5V16.25C21.6655 17.2442 21.27 18.1973 20.567 18.9003C19.864 19.6033 18.9109 19.9988 17.9167 20H3.75C2.75581 19.9988 1.80269 19.6033 1.09969 18.9003C0.39669 18.1973 0.0012129 17.2442 0 16.25V7.5H21.6667ZM13.8779 12.2121H12.1575L11.625 10.5758C11.5702 10.4091 11.4642 10.2639 11.322 10.161C11.1799 10.0581 11.0088 10.0027 10.8333 10.0027C10.6578 10.0027 10.4868 10.0581 10.3447 10.161C10.2025 10.2639 10.0965 10.4091 10.0417 10.5758L9.51 12.2121H7.78875C7.61276 12.212 7.44127 12.2677 7.29887 12.3712C7.15647 12.4746 7.05048 12.6204 6.99607 12.7878C6.94167 12.9552 6.94165 13.1355 6.99603 13.3029C7.0504 13.4703 7.15637 13.6161 7.29875 13.7196L8.69083 14.7308L8.15917 16.3671C8.10476 16.5345 8.10475 16.7148 8.15913 16.8822C8.21352 17.0496 8.31951 17.1955 8.46191 17.2989C8.60431 17.4023 8.7758 17.458 8.95181 17.458C9.12782 17.458 9.2993 17.4022 9.44167 17.2987L10.8333 16.2875L12.225 17.2987C12.3674 17.4022 12.5388 17.458 12.7149 17.458C12.8909 17.458 13.0624 17.4023 13.2048 17.2989C13.3472 17.1955 13.4531 17.0496 13.5075 16.8822C13.5619 16.7148 13.5619 16.5345 13.5075 16.3671L12.9758 14.7308L14.3679 13.7196C14.5103 13.6161 14.6163 13.4703 14.6706 13.3029C14.725 13.1355 14.725 12.9552 14.6706 12.7878C14.6162 12.6204 14.5102 12.4746 14.3678 12.3712C14.2254 12.2677 14.0539 12.212 13.8779 12.2121Z" fill="#FF5655"/>
</svg>
