<svg width="20" height="20" viewBox="0 0 20 20" fill="none" xmlns="http://www.w3.org/2000/svg">
<path d="M10 0C4.48598 0 0 4.48598 0 10C0 15.514 4.48598 20 10 20C15.5137 20 19.9994 15.514 19.9994 10C19.9994 4.48598 15.5137 0 10 0ZM14.9427 5.69659L11.7757 11.5814C11.7323 11.6622 11.6661 11.7285 11.5853 11.772L5.70078 14.9385C5.63256 14.9752 5.55631 14.9944 5.47886 14.9944C5.41727 14.9944 5.35627 14.9823 5.29937 14.9588C5.24246 14.9352 5.19077 14.9007 5.14725 14.8571C5.07594 14.7858 5.02951 14.6935 5.01484 14.5937C5.00016 14.494 5.01804 14.3922 5.0658 14.3034L8.23215 8.41908C8.27566 8.33824 8.34195 8.27195 8.42279 8.22844L14.3079 5.06177C14.3967 5.01399 14.4985 4.9961 14.5982 5.01074C14.698 5.02538 14.7903 5.07178 14.8616 5.14306C14.9329 5.21433 14.9792 5.30667 14.9939 5.40639C15.0085 5.5061 14.9906 5.60787 14.9427 5.69659Z" fill="#818397"/>
<path d="M10.0093 8.91016C9.40609 8.91016 8.91724 9.39853 8.91724 10.0017C8.91724 10.6048 9.40625 11.094 10.0093 11.094C10.6119 11.094 11.1009 10.6048 11.1009 10.0017C11.1009 9.39853 10.6119 8.91016 10.0093 8.91016Z" fill="#818397"/>
</svg>
