<svg width="19" height="19" viewBox="0 0 19 19" fill="none" xmlns="http://www.w3.org/2000/svg">
<path d="M0 9.4985C0.00053507 11.7607 0.807947 13.9486 2.27711 15.6689C3.74628 17.3892 5.78086 18.529 8.01515 18.8835V12.244H5.605V9.4985H8.018V7.4085C7.96472 6.91933 8.0198 6.42444 8.17933 5.95896C8.33886 5.49347 8.59893 5.06883 8.94106 4.71518C9.28319 4.36153 9.69899 4.08756 10.1589 3.91271C10.6189 3.73786 11.1117 3.66643 11.6024 3.7035C12.3148 3.7149 13.0273 3.77855 13.7303 3.8935V6.22955H12.5295C12.3255 6.20282 12.118 6.22229 11.9224 6.28653C11.7269 6.35077 11.5483 6.45813 11.3998 6.60068C11.2513 6.74323 11.1368 6.91733 11.0646 7.1101C10.9925 7.30287 10.9646 7.50939 10.983 7.7144V9.4985H13.6154L13.1945 12.2449H10.983V18.8835C12.7762 18.6001 14.4507 17.8088 15.8082 16.6033C17.1656 15.3978 18.1493 13.8286 18.6426 12.0814C19.1359 10.3342 19.1182 8.48223 18.5917 6.74477C18.0651 5.0073 17.0518 3.4571 15.6716 2.27768C14.2913 1.09827 12.6021 0.339044 10.8037 0.0898916C9.00543 -0.15926 7.17337 0.112097 5.52449 0.871836C3.87561 1.63157 2.47894 2.84788 1.49986 4.37674C0.520784 5.90561 0.000288202 7.683 0 9.4985Z" fill="#818397"/>
</svg>
