<svg width="40" height="40" viewBox="0 0 40 40" fill="none" xmlns="http://www.w3.org/2000/svg">
<rect width="40" height="40" rx="20" fill="#FEF5E7"/>
<path d="M9.19922 20.5974C9.19986 23.3121 10.1688 25.9376 11.9318 28.0019C13.6948 30.0662 16.1362 31.434 18.8174 31.8595V23.892H15.9252V20.5974H18.8208V18.0894C18.7569 17.5024 18.823 16.9085 19.0144 16.35C19.2058 15.7914 19.5179 15.2818 19.9285 14.8574C20.339 14.4331 20.838 14.1043 21.3899 13.8945C21.9419 13.6847 22.5332 13.5989 23.122 13.6434C23.977 13.6571 24.832 13.7335 25.6756 13.8714V16.6747H24.2347C23.9898 16.6426 23.7408 16.666 23.5061 16.7431C23.2715 16.8201 23.0571 16.949 22.879 17.12C22.7008 17.2911 22.5633 17.5 22.4767 17.7313C22.3902 17.9627 22.3567 18.2105 22.3788 18.4565V20.5974H25.5377L25.0327 23.8932H22.3788V31.8595C24.5306 31.5194 26.54 30.5698 28.169 29.1232C29.798 27.6766 30.9783 25.7935 31.5703 23.6969C32.1623 21.6002 32.1411 19.3779 31.5092 17.2929C30.8774 15.208 29.6613 13.3477 28.0051 11.9324C26.3488 10.5171 24.3217 9.60607 22.1637 9.30709C20.0057 9.00811 17.8073 9.33373 15.8286 10.2454C13.8499 11.1571 12.174 12.6167 10.9991 14.4513C9.82416 16.2859 9.19956 18.4188 9.19922 20.5974Z" fill="#F49E10"/>
</svg>
