<svg width="48" height="48" viewBox="0 0 48 48" fill="none" xmlns="http://www.w3.org/2000/svg">
<path d="M12.8588 8.5692H39.4302V7.71205C39.4302 6.29198 38.2789 5.14062 36.8588 5.14062H7.71596C6.29589 5.14062 5.14453 6.29198 5.14453 7.71205V40.2835C5.14453 41.7036 6.29589 42.8549 7.71596 42.8549H8.5731V12.8549C8.576 10.489 10.4929 8.57209 12.8588 8.5692Z" fill="#F49E10"/>
<path d="M44.5709 17.1406H10.2852V45.4263C10.2852 46.8464 11.4365 47.9978 12.8566 47.9978H41.9994C43.4195 47.9978 44.5709 46.8464 44.5709 45.4263V17.1406Z" fill="#F49E10"/>
<path d="M7.71429 3.42857H34.2857V2.57143C34.2857 1.15136 33.1344 0 31.7143 0H2.57143C1.15136 0 0 1.15136 0 2.57143V35.1429C0 36.5629 1.15136 37.7143 2.57143 37.7143H3.42857V7.71429C3.43146 5.34836 5.34836 3.43146 7.71429 3.42857Z" fill="#F49E10"/>
<path d="M44.5709 12.8605C44.5709 11.4404 43.4195 10.2891 41.9994 10.2891H12.8566C11.4365 10.2891 10.2852 11.4404 10.2852 12.8605V15.4319H44.5709V12.8605ZM13.6452 13.1862C13.6015 13.29 13.5407 13.3856 13.4652 13.4691C13.3453 13.589 13.1922 13.6703 13.0256 13.7024C12.8591 13.7345 12.6867 13.7159 12.5309 13.6491C12.426 13.6076 12.33 13.5465 12.248 13.4691C12.1725 13.3856 12.1116 13.29 12.068 13.1862C12.0229 13.0836 11.9995 12.9726 11.9995 12.8605C11.9995 12.7483 12.0229 12.6374 12.068 12.5348C12.1094 12.4299 12.1705 12.3339 12.248 12.2519C12.4137 12.0989 12.631 12.014 12.8566 12.014C13.0821 12.014 13.2994 12.0989 13.4652 12.2519C13.5426 12.3339 13.6037 12.4299 13.6452 12.5348C13.6905 12.6374 13.7139 12.7483 13.7139 12.8605C13.7139 12.9727 13.6905 13.0836 13.6452 13.1862ZM16.2166 13.1862C16.173 13.29 16.1121 13.3856 16.0366 13.4691C15.9167 13.589 15.7636 13.6703 15.5971 13.7024C15.4305 13.7345 15.2582 13.7159 15.1023 13.6491C14.9985 13.6056 14.9028 13.5447 14.8194 13.4691C14.7439 13.3856 14.6831 13.29 14.6394 13.1862C14.5913 13.0845 14.5679 12.9729 14.5709 12.8605C14.5721 12.7485 14.5954 12.6378 14.6394 12.5348C14.6809 12.4299 14.742 12.3339 14.8194 12.2519C14.9852 12.0989 15.2025 12.014 15.428 12.014C15.6536 12.014 15.8708 12.0989 16.0366 12.2519C16.1141 12.3339 16.1752 12.4299 16.2166 12.5348C16.2619 12.6374 16.2854 12.7483 16.2854 12.8605C16.2854 12.9727 16.2619 13.0836 16.2166 13.1862ZM18.608 13.4691C18.4882 13.5899 18.335 13.6724 18.1681 13.7058C18.0012 13.7393 17.8281 13.7223 17.6709 13.657C17.5136 13.5918 17.3793 13.4812 17.2852 13.3393C17.191 13.1975 17.1413 13.0308 17.1423 12.8605C17.1393 12.748 17.1628 12.6365 17.2109 12.5348C17.2523 12.4299 17.3134 12.3339 17.3909 12.2519C17.5566 12.0989 17.7739 12.014 17.9994 12.014C18.225 12.014 18.4423 12.0989 18.608 12.2519C18.6855 12.3339 18.7466 12.4299 18.788 12.5348C18.8549 12.6907 18.8735 12.863 18.8414 13.0295C18.8093 13.1961 18.728 13.3492 18.608 13.4691Z" fill="#F49E10"/>
</svg>
