<svg width="18" height="18" viewBox="0 0 18 18" fill="none" xmlns="http://www.w3.org/2000/svg">
<path d="M5.52832 6.91624C5.52832 6.14919 6.15016 5.52734 6.91722 5.52734C7.68428 5.52734 8.30609 6.14919 8.30609 6.91624C8.30609 7.68333 7.68428 8.30514 6.91722 8.30514C6.15013 8.30514 5.52832 7.68333 5.52832 6.91624Z" fill="#B04759"/>
<path fill-rule="evenodd" clip-rule="evenodd" d="M1.48242 13.4394C1.32907 13.5817 1.07871 13.5161 1.0306 13.3125C0.765527 12.1907 0.666992 10.7757 0.666992 8.99935C0.666992 2.13685 2.13783 0.666016 9.00033 0.666016C15.8628 0.666016 17.3337 2.13685 17.3337 8.99935C17.3337 9.02227 17.3337 9.04512 17.3336 9.06797C17.3336 9.07054 17.331 9.0722 17.3286 9.07116C16.8897 8.87122 16.2671 8.63776 15.5413 8.51331C14.0701 8.2611 12.1506 8.46159 10.561 10.2782C9.20176 11.8317 8.61566 11.9553 8.17627 11.9273C7.94098 11.9124 7.71585 11.8532 7.38555 11.7663C7.28581 11.7401 7.1765 11.7113 7.05443 11.6805C6.55934 11.5555 5.95508 11.4299 5.18086 11.4299C4.5763 11.4299 3.97695 11.6662 3.46191 11.9503C2.93581 12.2406 2.43079 12.6186 1.99915 12.9821C1.82331 13.1304 1.65102 13.2829 1.48242 13.4394ZM4.13923 6.91602C4.13923 5.3819 5.38288 4.13825 6.91699 4.13825C8.45114 4.13825 9.69476 5.3819 9.69476 6.91602C9.69476 8.4501 8.45114 9.69378 6.91699 9.69378C5.38288 9.69378 4.13923 8.4501 4.13923 6.91602Z" fill="#B04759"/>
<path d="M1.91033 14.9614C1.82045 15.0534 1.80697 15.1961 1.88292 15.2998C3.03962 16.8796 5.18796 17.3334 9.00001 17.3334C15.2785 17.3334 17.044 16.1022 17.299 10.6373C17.2992 10.6328 17.2982 10.6284 17.2962 10.6244C17.2941 10.6205 17.2911 10.6172 17.2873 10.6148L17.2767 10.6083C17.2419 10.5873 17.2068 10.5669 17.1714 10.5471C17.0761 10.4936 16.9334 10.4182 16.7525 10.3357C16.3884 10.1698 15.8826 9.98169 15.3064 9.88289C14.1732 9.68866 12.7943 9.83547 11.606 11.1934C10.1875 12.8146 9.21114 13.3855 8.08799 13.3141C7.70391 13.2898 7.30863 13.1847 6.95632 13.0911C6.87572 13.0695 6.79499 13.0484 6.71413 13.0278C6.27605 12.9171 5.79525 12.8195 5.18057 12.8195C4.9171 12.8195 4.56156 12.9305 4.13259 13.1671C3.71469 13.3977 3.28653 13.7141 2.89353 14.0451C2.50294 14.3741 2.16146 14.705 1.917 14.9546C1.91479 14.9569 1.91257 14.9592 1.91033 14.9614Z" fill="#B04759"/>
</svg>
