<svg width="20" height="19" viewBox="0 0 20 19" fill="none" xmlns="http://www.w3.org/2000/svg">
<path d="M18.35 4.20997C18.3497 5.00015 18.0961 5.76943 17.6263 6.4048C17.1565 7.04017 16.4954 7.50814 15.74 7.73998C15.913 7.1762 16.0006 6.58971 16 5.99998C16.0001 4.96122 15.73 3.94029 15.2163 3.03742C14.7026 2.13455 13.963 1.38078 13.07 0.850109C13.5651 0.620287 14.1042 0.500826 14.65 0.5C15.6325 0.501714 16.5741 0.893454 17.2679 1.58912C17.9617 2.28479 18.3509 3.22747 18.35 4.20997ZM17.6 8.80006C17.1799 8.68236 16.7303 8.73632 16.35 8.95006C15.9224 9.18714 15.4478 9.32709 14.96 9.35994C14.7581 9.66775 14.5234 9.95279 14.26 10.2101C15.2047 10.5209 16.0458 11.0855 16.6913 11.8421C17.3368 12.5987 17.7618 13.5182 17.92 14.5001H18.61C18.8316 14.5032 19.0499 14.4463 19.2418 14.3354C19.4337 14.2245 19.5921 14.0638 19.7 13.8702C19.8986 13.4978 20.0016 13.082 20 12.66V11.95C20 10.46 19.01 9.16991 17.6 8.80006ZM6.93002 0.850109C6.43494 0.620287 5.89582 0.500826 5.35 0.5C4.46401 0.500615 3.60761 0.818928 2.93631 1.39714C2.265 1.97536 1.8233 2.77513 1.69141 3.65125C1.55951 4.52737 1.74617 5.42175 2.21748 6.17198C2.6888 6.9222 3.41352 7.47855 4.26007 7.73998C4.08706 7.17621 3.99941 6.58971 4 5.99998C3.99995 4.96122 4.27002 3.94029 4.78371 3.03742C5.29739 2.13455 6.03703 1.38078 6.93002 0.850109ZM5.74 10.21C5.47665 9.9527 5.24194 9.66766 5.03997 9.35984C4.55217 9.32699 4.07761 9.18705 3.65003 8.94997C3.26973 8.73622 2.8201 8.68227 2.40002 8.79997C0.989971 9.16981 1.84536e-05 10.4599 1.84536e-05 11.95V12.6599C-0.00158625 13.0819 0.10149 13.4977 0.300019 13.8701C0.406831 14.0625 0.563507 14.2225 0.753568 14.3333C0.943628 14.4442 1.16005 14.5018 1.38007 14.5H2.08C2.23819 13.5181 2.66325 12.5986 3.30874 11.842C3.95423 11.0854 4.7953 10.5208 5.74 10.21ZM13.58 11.57C13.4066 11.5265 13.2288 11.503 13.05 11.5C12.7032 11.5007 12.3624 11.5903 12.06 11.76C11.4291 12.1077 10.7204 12.29 10 12.29C9.27961 12.29 8.57093 12.1077 7.93999 11.76C7.63761 11.5903 7.29681 11.5007 6.95003 11.5C6.77125 11.503 6.59339 11.5265 6.41997 11.57C5.57957 11.7979 4.83785 12.2968 4.30989 12.9892C3.78194 13.6817 3.49725 14.529 3.49999 15.3997V16.2698C3.50032 16.7796 3.62748 17.2814 3.87002 17.7298C4.12 18.2097 4.62002 18.4998 5.17999 18.4998H14.82C15.38 18.4998 15.88 18.2097 16.13 17.7298C16.3725 17.2814 16.4997 16.7796 16.5 16.2698V15.3999C16.5028 14.5291 16.2181 13.6818 15.6902 12.9893C15.1622 12.2968 14.4205 11.7979 13.58 11.57ZM14.5 5.99998C14.5 5.10997 14.2361 4.23994 13.7416 3.49992C13.2471 2.7599 12.5443 2.18312 11.7221 1.84253C10.8998 1.50193 9.99501 1.41282 9.1221 1.58645C8.24918 1.76008 7.44736 2.18867 6.81802 2.818C6.18869 3.44734 5.7601 4.24916 5.58647 5.12208C5.41284 5.99499 5.50195 6.89979 5.84255 7.72206C6.18314 8.54433 6.75992 9.24713 7.49994 9.7416C8.23996 10.2361 9.10999 10.5 10 10.5C11.1935 10.5 12.3381 10.0259 13.182 9.18196C14.0259 8.33805 14.5 7.19346 14.5 5.99998Z" fill="#F49E10"/>
</svg>
