<svg width="21" height="20" viewBox="0 0 21 20" fill="none" xmlns="http://www.w3.org/2000/svg">
<path d="M18.0402 4.82165L12.2802 0.791647C10.7102 -0.308353 8.30023 -0.248353 6.79023 0.921647L1.78023 4.83165C0.780234 5.61165 -0.00976562 7.21165 -0.00976562 8.47165V15.3716C-0.00976562 17.9216 2.06023 20.0016 4.61023 20.0016H15.3902C17.9402 20.0016 20.0102 17.9316 20.0102 15.3816V8.60165C20.0102 7.25165 19.1402 5.59165 18.0402 4.82165ZM10.7502 16.0016C10.7502 16.4116 10.4102 16.7516 10.0002 16.7516C9.59023 16.7516 9.25023 16.4116 9.25023 16.0016V13.0016C9.25023 12.5916 9.59023 12.2516 10.0002 12.2516C10.4102 12.2516 10.7502 12.5916 10.7502 13.0016V16.0016Z" fill="#F49E10"/>
</svg>
