<svg width="40" height="41" viewBox="0 0 40 41" fill="none" xmlns="http://www.w3.org/2000/svg">
<rect y="0.816406" width="40" height="40" rx="20" fill="#FEF5E7"/>
<path d="M29.7491 19.6825V25.6825C29.8078 26.1892 29.7512 26.7026 29.5835 27.1843C29.4158 27.666 29.1414 28.1035 28.7807 28.4642C28.42 28.8248 27.9825 29.0993 27.5008 29.267C27.0191 29.4346 26.5057 29.4912 25.9991 29.4325H13.9991C13.4924 29.4912 12.979 29.4346 12.4973 29.267C12.0156 29.0993 11.5781 28.8248 11.2174 28.4642C10.8568 28.1035 10.5823 27.666 10.4146 27.1843C10.2469 26.7026 10.1903 26.1892 10.2491 25.6825V15.6825C10.1903 15.1759 10.2469 14.6625 10.4146 14.1808C10.5823 13.6991 10.8568 13.2615 11.2174 12.9009C11.5781 12.5402 12.0156 12.2658 12.4973 12.0981C12.979 11.9304 13.4924 11.8738 13.9991 11.9325H21.9991C22.198 11.9325 22.3887 12.0115 22.5294 12.1522C22.67 12.2928 22.7491 12.4836 22.7491 12.6825C22.7491 12.8814 22.67 13.0722 22.5294 13.2129C22.3887 13.3535 22.198 13.4325 21.9991 13.4325H13.9991C12.4221 13.4325 11.7491 14.1055 11.7491 15.6825V24.9325L14.2891 22.3925C14.4779 22.2052 14.7331 22.1 14.9991 22.1C15.265 22.1 15.5203 22.2052 15.7091 22.3925L16.6491 23.3325C16.7425 23.4241 16.8682 23.4755 16.9991 23.4755C17.1299 23.4755 17.2556 23.4241 17.3491 23.3325L22.2891 18.3925C22.4779 18.2052 22.7331 18.1 22.9991 18.1C23.265 18.1 23.5203 18.2052 23.7091 18.3925L28.2491 22.9325V19.6825C28.2491 19.4836 28.3281 19.2928 28.4687 19.1522C28.6094 19.0115 28.8001 18.9325 28.9991 18.9325C29.198 18.9325 29.3887 19.0115 29.5294 19.1522C29.67 19.2928 29.7491 19.4836 29.7491 19.6825ZM15.9921 16.4325C15.66 16.4334 15.342 16.5661 15.1077 16.8014C14.8734 17.0366 14.7421 17.3553 14.7426 17.6873C14.743 18.0193 14.8752 18.3375 15.1102 18.5721C15.3451 18.8067 15.6635 18.9385 15.9956 18.9385C16.3276 18.9385 16.646 18.8067 16.8809 18.5721C17.1159 18.3375 17.2481 18.0193 17.2486 17.6873C17.249 17.3553 17.1177 17.0366 16.8834 16.8014C16.6491 16.5661 16.3311 16.4334 15.9991 16.4325H15.9921ZM26.5291 13.7125L26.7491 13.4935V15.6825C26.7491 15.8814 26.8281 16.0722 26.9687 16.2129C27.1094 16.3535 27.3001 16.4325 27.4991 16.4325C27.698 16.4325 27.8887 16.3535 28.0294 16.2129C28.17 16.0722 28.2491 15.8814 28.2491 15.6825V13.4935L28.4691 13.7125C28.6112 13.845 28.7993 13.9171 28.9936 13.9137C29.1879 13.9103 29.3733 13.8316 29.5107 13.6941C29.6481 13.5567 29.7268 13.3713 29.7302 13.177C29.7337 12.9827 29.6615 12.7947 29.5291 12.6525L28.0291 11.1525C27.8883 11.0123 27.6977 10.9336 27.4991 10.9336C27.3004 10.9336 27.1098 11.0123 26.9691 11.1525L25.4691 12.6525C25.3366 12.7947 25.2645 12.9827 25.2679 13.177C25.2713 13.3713 25.35 13.5567 25.4874 13.6941C25.6249 13.8316 25.8102 13.9103 26.0045 13.9137C26.1988 13.9171 26.3869 13.845 26.5291 13.7125Z" fill="#F49E10"/>
</svg>
