<svg width="40" height="40" viewBox="0 0 40 40" fill="none" xmlns="http://www.w3.org/2000/svg">
<rect width="40" height="40" rx="20" fill="#FEF5E7"/>
<path d="M30.7266 14.7407C30.7138 13.7818 30.5343 12.8324 30.1961 11.9351C29.9028 11.1781 29.4548 10.4907 28.8808 9.91667C28.3068 9.34266 27.6194 8.89469 26.8624 8.6014C25.9766 8.26887 25.0407 8.08906 24.0947 8.06964C22.8767 8.01519 22.4906 8 19.3987 8C16.3069 8 15.9106 8 14.7015 8.06964C13.7559 8.0892 12.8205 8.26901 11.9351 8.6014C11.178 8.89449 10.4905 9.34238 9.91642 9.91642C9.34238 10.4905 8.89449 11.178 8.6014 11.9351C8.2682 12.8202 8.08878 13.7558 8.0709 14.7015C8.01646 15.9207 8 16.3069 8 19.3987C8 22.4906 8 22.8856 8.0709 24.096C8.08989 25.043 8.26841 25.9774 8.6014 26.865C8.89498 27.6218 9.3432 28.309 9.91743 28.8828C10.4917 29.4566 11.1793 29.9043 11.9363 30.1973C12.8193 30.5432 13.7549 30.7359 14.7028 30.7671C15.922 30.8215 16.3082 30.838 19.4 30.838C22.4918 30.838 22.8881 30.838 24.0972 30.7671C25.0432 30.7485 25.9791 30.5691 26.865 30.2366C27.6217 29.9429 28.309 29.4949 28.8829 28.9209C29.4569 28.3469 29.905 27.6597 30.1986 26.9029C30.5316 26.0167 30.7101 25.0823 30.7291 24.134C30.7835 22.916 30.8 22.5298 30.8 19.4367C30.7975 16.3449 30.7975 15.9524 30.7266 14.7407ZM19.3911 25.2456C16.1575 25.2456 13.5379 22.626 13.5379 19.3924C13.5379 16.1588 16.1575 13.5392 19.3911 13.5392C20.9435 13.5392 22.4323 14.1559 23.53 15.2536C24.6277 16.3513 25.2443 17.84 25.2443 19.3924C25.2443 20.9448 24.6277 22.4336 23.53 23.5312C22.4323 24.6289 20.9435 25.2456 19.3911 25.2456ZM25.4773 14.6876C25.298 14.6877 25.1205 14.6525 24.9548 14.584C24.7891 14.5155 24.6386 14.4149 24.5118 14.2882C24.3851 14.1614 24.2845 14.0109 24.216 13.8452C24.1475 13.6795 24.1123 13.502 24.1124 13.3227C24.1124 13.1435 24.1477 12.9661 24.2163 12.8006C24.2848 12.6351 24.3853 12.4847 24.512 12.358C24.6387 12.2314 24.7891 12.1309 24.9546 12.0623C25.1201 11.9938 25.2975 11.9585 25.4767 11.9585C25.6558 11.9585 25.8332 11.9938 25.9987 12.0623C26.1643 12.1309 26.3146 12.2314 26.4413 12.358C26.568 12.4847 26.6685 12.6351 26.7371 12.8006C26.8056 12.9661 26.8409 13.1435 26.8409 13.3227C26.8409 14.0773 26.2306 14.6876 25.4773 14.6876Z" fill="#F49E10"/>
<path d="M19.3911 23.1945C21.491 23.1945 23.1933 21.4923 23.1933 19.3924C23.1933 17.2926 21.491 15.5903 19.3911 15.5903C17.2913 15.5903 15.589 17.2926 15.589 19.3924C15.589 21.4923 17.2913 23.1945 19.3911 23.1945Z" fill="#F49E10"/>
</svg>
