<svg width="24" height="24" viewBox="0 0 24 24" fill="none" xmlns="http://www.w3.org/2000/svg">
<path d="M23.3764 20.4059L13.9655 10.995L2.9705 0H2.11123L1.93578 0.445828C1.4727 1.62258 1.27484 2.82614 1.36367 3.92625C1.46492 5.18025 1.94131 6.26592 2.74142 7.06603L11.3247 15.6493L12.4568 14.5172L20.3921 23.3903C21.1814 24.1797 22.5401 24.2265 23.3764 23.3903C24.1992 22.5675 24.1992 21.2287 23.3764 20.4059ZM7.34726 13.6613L0.624875 20.3837C-0.197875 21.2065 -0.197875 22.5453 0.624875 23.368C1.40647 24.1496 2.75858 24.2186 3.60917 23.368L10.3316 16.6456L7.34726 13.6613ZM22.9812 3.99605L19.1679 7.80933L18.1731 6.81455L21.9864 3.00122L20.9916 2.00644L17.1784 5.81972L16.1836 4.82494L19.9969 1.01166L19.0022 0.0169219L14.0283 4.99083C13.4202 5.59838 13.0562 6.40787 13.0051 7.26591C12.9921 7.48345 12.9428 7.69744 12.861 7.90097L16.092 11.132C16.2956 11.0501 16.5096 11.0009 16.7271 10.9879C17.5851 10.9369 18.3947 10.5728 19.0022 9.96473L23.9761 4.99088L22.9812 3.99605Z" fill="#F49E10"/>
</svg>
