<svg width="24" height="22" viewBox="0 0 24 22" fill="none" xmlns="http://www.w3.org/2000/svg">
<path d="M4.22726 13.6721L9.48077 8.41856L10.7357 9.67486C11.3273 10.2695 12.1148 10.5971 12.9529 10.5971C13.791 10.5971 14.5785 10.2695 15.1704 9.67463C16.3877 8.45123 16.3877 6.46074 15.1704 5.23734L13.2028 3.26456L14.1802 2.40502C16.6388 0.250501 20.3785 0.497016 22.533 2.95561C24.6875 5.4142 24.441 9.15389 21.9824 11.3084L20.5781 12.6063L19.0192 11.0473C18.1121 10.1403 16.6363 10.1403 15.7293 11.0473C15.2967 11.4798 15.056 12.0528 15.0486 12.6633C14.4629 12.6708 13.8796 12.897 13.4337 13.3429C12.9876 13.789 12.7614 14.3728 12.7541 14.9588C12.1681 14.966 11.5843 15.1922 11.1382 15.6384C10.2312 16.5454 10.2311 18.0213 11.1381 18.9283L12.3867 20.1769L11.3308 21.1528C10.6104 21.7841 9.51462 21.7119 8.88331 20.9915C8.25199 20.2711 8.32423 19.1753 9.04465 18.544C8.32427 19.1753 7.22848 19.1031 6.59721 18.3827C5.9659 17.6623 6.03813 16.5665 6.75856 15.9353L6.75846 15.9352C6.03809 16.5665 4.94229 16.4942 4.31098 15.7738C3.76999 15.1565 3.80131 14.3771 4.22726 13.6721Z" fill="#8F2DA3"/>
<path d="M1.73365 2.14968C4.04525 -0.161871 7.793 -0.161871 10.1046 2.14968L14.1731 6.22893C14.6589 6.71727 14.8082 7.46896 14.5519 8.1073C14.2731 8.80175 13.555 9.24641 12.8088 9.18444C12.3973 9.15027 12.0097 8.96539 11.7207 8.67125L9.48087 6.42894L3.5614 12.3483L1.7337 10.5206C-0.577892 8.20902 -0.577892 4.46122 1.73365 2.14968ZM18.7287 15.348L16.7231 13.3424C16.6374 13.2572 16.5695 13.1558 16.5232 13.0441C16.4769 12.9324 16.4533 12.8127 16.4536 12.6918C16.4533 12.5709 16.4769 12.4512 16.5232 12.3395C16.5695 12.2279 16.6374 12.1265 16.7231 12.0412C16.9025 11.8619 17.1381 11.7722 17.3737 11.7722C17.6093 11.7722 17.8449 11.8619 18.0243 12.0413L20.0299 14.0469C20.3872 14.4042 20.3883 14.9847 20.0337 15.3438C20.0278 15.3495 20.0218 15.355 20.0159 15.3607C19.8438 15.5261 19.6187 15.6175 19.3793 15.6175C19.2584 15.6178 19.1387 15.5942 19.027 15.5479C18.9154 15.5017 18.814 15.4337 18.7287 15.348ZM16.4331 17.6436L14.4275 15.638C14.3418 15.5528 14.2739 15.4514 14.2276 15.3397C14.1814 15.228 14.1577 15.1083 14.1581 14.9874C14.1577 14.8666 14.1814 14.7468 14.2276 14.6352C14.2739 14.5235 14.3418 14.4221 14.4275 14.3368C14.6013 14.1631 14.8323 14.0674 15.0781 14.0674C15.3238 14.0674 15.5549 14.1631 15.7287 14.3368L17.7343 16.3425C17.82 16.4277 17.8879 16.5291 17.9342 16.6408C17.9805 16.7525 18.0041 16.8722 18.0038 16.9931C18.0041 17.1132 17.9807 17.2323 17.9349 17.3434C17.8891 17.4545 17.8219 17.5555 17.7371 17.6406C17.7333 17.6444 17.7293 17.6479 17.7255 17.6516C17.3661 18.0019 16.7891 17.9995 16.4331 17.6436ZM14.1376 19.9392L12.132 17.9336C11.7733 17.5748 11.7732 16.9911 12.132 16.6324C12.3058 16.4586 12.5368 16.3629 12.7826 16.3629C13.0283 16.3629 13.2594 16.4586 13.4331 16.6324L15.4388 18.638C15.5245 18.7232 15.5924 18.8246 15.6387 18.9363C15.6849 19.048 15.7086 19.1677 15.7083 19.2886C15.7086 19.4091 15.685 19.5285 15.639 19.6399C15.593 19.7513 15.5254 19.8525 15.4401 19.9377C15.4383 19.9395 15.4363 19.9412 15.4345 19.9431C15.0754 20.2976 14.495 20.2965 14.1376 19.9392Z" fill="#8F2DA3"/>
</svg>
