<svg width="43" height="59" viewBox="0 0 43 59" fill="none" xmlns="http://www.w3.org/2000/svg">
<path d="M39.3935 30.7753C41.3647 27.2568 42.4755 23.4944 42.0453 18.9936C41.0629 8.79139 32.6258 0.66299 22.3972 0.0401991C10.1589 -0.704582 0.000976562 8.99684 0.000976562 21.0674C0.000976562 29.4141 5.34962 34.7175 10.0369 40.894C14.127 46.2873 17.6265 51.565 19.9252 57.9213C20.1884 58.6468 21.1965 58.6596 21.4919 57.9405C23.6879 52.6435 26.8084 47.7961 30.2115 43.199C31.9452 40.8491 33.7623 38.5633 35.5794 36.284C37.0305 34.4799 38.334 32.6629 39.3935 30.7753Z" fill="#D2AADA"/>
<path d="M3.15479 21.1458C3.15479 11.4068 11.0498 3.51172 20.7889 3.51172C30.5279 3.51172 38.4229 11.4068 38.4229 21.1458C38.4229 30.8848 30.5279 38.7799 20.7889 38.7799C11.0498 38.7799 3.15479 30.8848 3.15479 21.1458Z" fill="#F4E9F6"/>
<g clip-path="url(#clip0_3712_5978)">
<path d="M14.5234 23.2254L18.9013 18.8475L19.947 19.8944C20.4401 20.39 21.0963 20.663 21.7947 20.663C22.4931 20.663 23.1494 20.39 23.6427 19.8942C24.657 18.8747 24.657 17.216 23.6427 16.1965L22.003 14.5525L22.8175 13.8362C24.8663 12.0408 27.9827 12.2462 29.7782 14.295C31.5736 16.3439 31.3682 19.4603 29.3193 21.2557L28.1491 22.3373L26.85 21.0381C26.0941 20.2823 24.8642 20.2823 24.1084 21.0381C23.7479 21.3986 23.5474 21.8761 23.5412 22.3848C23.0531 22.3911 22.567 22.5795 22.1954 22.9511C21.8236 23.3229 21.6351 23.8094 21.6291 24.2977C21.1407 24.3037 20.6543 24.4922 20.2825 24.864C19.5266 25.6199 19.5266 26.8498 20.2824 27.6056L21.3229 28.6461L20.443 29.4594C19.8427 29.9855 18.9295 29.9253 18.4034 29.3249C17.8773 28.7246 17.9375 27.8114 18.5379 27.2854C17.9375 27.8115 17.0244 27.7513 16.4983 27.1509C15.9722 26.5506 16.0324 25.6375 16.6328 25.1114L16.6327 25.1113C16.0324 25.6374 15.1192 25.5772 14.5931 24.9769C14.1423 24.4624 14.1684 23.8129 14.5234 23.2254Z" fill="#8F2DA3"/>
<path d="M12.4452 13.6244C14.3715 11.6981 17.4947 11.6981 19.421 13.6244L22.8114 17.0238C23.2163 17.4307 23.3406 18.0571 23.1271 18.5891C22.8947 19.1678 22.2963 19.5383 21.6745 19.4867C21.3316 19.4582 21.0086 19.3042 20.7677 19.0591L18.9012 17.1905L13.9683 22.1233L12.4452 20.6001C10.5189 18.6739 10.5189 15.5507 12.4452 13.6244ZM26.6078 24.623L24.9364 22.9517C24.865 22.8806 24.8084 22.7961 24.7698 22.7031C24.7313 22.61 24.7116 22.5102 24.7118 22.4095C24.7116 22.3088 24.7313 22.209 24.7698 22.116C24.8084 22.0229 24.865 21.9384 24.9364 21.8674C25.0859 21.7179 25.2823 21.6432 25.4786 21.6432C25.6749 21.6432 25.8712 21.7179 26.0207 21.8674L27.692 23.5387C27.9898 23.8365 27.9907 24.3202 27.6952 24.6195C27.6904 24.6243 27.6853 24.6289 27.6804 24.6336C27.537 24.7714 27.3494 24.8476 27.1499 24.8476C27.0492 24.8479 26.9494 24.8282 26.8563 24.7896C26.7633 24.7511 26.6788 24.6945 26.6078 24.623ZM24.6948 26.536L23.0234 24.8647C22.952 24.7936 22.8954 24.7092 22.8568 24.6161C22.8183 24.523 22.7986 24.4233 22.7989 24.3225C22.7986 24.2218 22.8183 24.122 22.8569 24.029C22.8954 23.9359 22.952 23.8514 23.0234 23.7804C23.1682 23.6356 23.3607 23.5558 23.5656 23.5558C23.7704 23.5558 23.9629 23.6356 24.1077 23.7804L25.7791 25.4517C25.8505 25.5228 25.9071 25.6073 25.9457 25.7003C25.9842 25.7934 26.0039 25.8932 26.0036 25.9939C26.0039 26.094 25.9844 26.1933 25.9462 26.2859C25.9081 26.3785 25.8521 26.4626 25.7814 26.5335C25.7782 26.5367 25.7749 26.5396 25.7718 26.5427C25.4722 26.8346 24.9914 26.8326 24.6948 26.536ZM22.7818 28.449L21.1105 26.7776C20.8116 26.4787 20.8115 25.9923 21.1105 25.6933C21.2553 25.5485 21.4478 25.4687 21.6526 25.4687C21.8574 25.4687 22.05 25.5485 22.1948 25.6933L23.8661 27.3647C23.9376 27.4357 23.9942 27.5202 24.0327 27.6133C24.0713 27.7063 24.091 27.8061 24.0907 27.9068C24.091 28.0073 24.0714 28.1068 24.033 28.1996C23.9947 28.2924 23.9383 28.3768 23.8673 28.4477C23.8657 28.4493 23.8641 28.4507 23.8625 28.4522C23.5633 28.7477 23.0797 28.7467 22.7818 28.449Z" fill="#8F2DA3"/>
</g>
<defs>
<clipPath id="clip0_3712_5978">
<rect width="20" height="20" fill="white" transform="translate(11.0005 11)"/>
</clipPath>
</defs>
</svg>
