<svg width="20" height="20" viewBox="0 0 20 20" fill="none" xmlns="http://www.w3.org/2000/svg">
<path d="M10.0007 10.0013C10.459 10.0013 10.8513 9.83811 11.1777 9.51172C11.5041 9.18533 11.6673 8.79297 11.6673 8.33463C11.6673 7.8763 11.5041 7.48394 11.1777 7.15755C10.8513 6.83116 10.459 6.66797 10.0007 6.66797C9.54232 6.66797 9.14996 6.83116 8.82357 7.15755C8.49718 7.48394 8.33398 7.8763 8.33398 8.33463C8.33398 8.79297 8.49718 9.18533 8.82357 9.51172C9.14996 9.83811 9.54232 10.0013 10.0007 10.0013ZM10.0007 18.3346C7.76454 16.4319 6.0944 14.6645 4.99023 13.0326C3.88607 11.4006 3.33398 9.89019 3.33398 8.5013C3.33398 6.41797 4.00412 4.75825 5.3444 3.52214C6.68468 2.28602 8.23676 1.66797 10.0007 1.66797C11.7645 1.66797 13.3166 2.28602 14.6569 3.52214C15.9972 4.75825 16.6673 6.41797 16.6673 8.5013C16.6673 9.89019 16.1152 11.4006 15.0111 13.0326C13.9069 14.6645 12.2368 16.4319 10.0007 18.3346Z" fill="#F49E10"/>
</svg>
