<svg width="14" height="16" viewBox="0 0 14 16" fill="none" xmlns="http://www.w3.org/2000/svg">
<path fill-rule="evenodd" clip-rule="evenodd" d="M6.92739 13.111V13.8585C6.92739 14.458 6.62862 14.9755 6.10945 15.2752C5.85967 15.4194 5.58088 15.4999 5.29184 15.5C5.00253 15.5001 4.72383 15.4196 4.47387 15.2752L1.14997 13.3561C0.630742 13.0564 0.332031 12.539 0.332031 11.9394V2.13588C0.332031 1.2338 1.06586 0.5 1.96791 0.5H9.28833C10.1904 0.5 10.9243 1.23374 10.9243 2.13588V4.20244C10.9243 4.4989 10.6836 4.7396 10.3872 4.7396C10.0906 4.7396 9.85013 4.49893 9.85013 4.20244V2.13588C9.85013 1.82612 9.59809 1.57408 9.28833 1.57408H2.87374L6.10945 3.44254C6.62844 3.74225 6.92739 4.25963 6.92739 4.85896V12.0368H9.28833C9.59806 12.0368 9.85013 11.7849 9.85013 11.4751V9.66349C9.85013 9.36683 10.0905 9.12633 10.3872 9.12633C10.6837 9.12633 10.9243 9.36689 10.9243 9.66349V11.4751C10.9243 12.3772 10.1904 13.111 9.28833 13.111H6.92739ZM11.9044 7.34251L11.3129 7.93404C11.1032 8.14377 11.1032 8.48379 11.3129 8.69356C11.3627 8.74347 11.4219 8.78305 11.4871 8.81001C11.5523 8.83698 11.6221 8.85081 11.6927 8.85071C11.7632 8.85085 11.8331 8.83704 11.8983 8.81007C11.9635 8.7831 12.0227 8.7435 12.0726 8.69356L13.5808 7.18512C13.7904 6.97542 13.7905 6.63557 13.5808 6.42587L12.0726 4.91767C11.8628 4.7079 11.5228 4.70799 11.3129 4.91764C11.1032 5.12717 11.1033 5.46733 11.3129 5.67692L11.9044 6.26831H7.94173C7.64499 6.26831 7.40469 6.50878 7.40469 6.8055C7.40469 7.10221 7.64501 7.34254 7.94173 7.34254H11.9044V7.34251Z" fill="#B04759"/>
</svg>
