<svg width="17" height="17" viewBox="0 0 17 17" fill="none" xmlns="http://www.w3.org/2000/svg">
<path d="M13.2435 0.222656C11.2331 0.222656 9.59766 1.85807 9.59766 3.86849C9.59766 5.73932 12.5227 9.05286 12.856 9.42474C12.9549 9.53411 13.0956 9.59766 13.2435 9.59766C13.3914 9.59766 13.532 9.53411 13.631 9.42474C13.9643 9.05286 16.8893 5.73932 16.8893 3.86849C16.8893 1.85807 15.2539 0.222656 13.2435 0.222656ZM13.2435 5.43099C12.381 5.43099 11.681 4.73099 11.681 3.86849C11.681 3.00599 12.381 2.30599 13.2435 2.30599C14.106 2.30599 14.806 3.00599 14.806 3.86849C14.806 4.73099 14.106 5.43099 13.2435 5.43099ZM0.54974 6.34141C0.453149 6.38034 0.3704 6.44726 0.312119 6.53357C0.253837 6.61988 0.222683 6.72164 0.222656 6.82578L0.222656 16.3685C0.222656 16.5414 0.309115 16.7029 0.451823 16.7997C0.539323 16.8581 0.640365 16.8893 0.74349 16.8893C0.809115 16.8893 0.87474 16.8768 0.93724 16.8518L5.43099 15.0539V4.38932L0.54974 6.34141Z" fill="#686A82"/>
<path d="M14.406 10.1219C14.1102 10.451 13.6862 10.6406 13.2435 10.6406C12.8008 10.6406 12.3768 10.451 12.081 10.1219C11.9747 10.0042 11.8383 9.84896 11.681 9.66458V16.8906L16.5622 14.9385C16.7602 14.8604 16.8893 14.6677 16.8893 14.4552V6.79792C16.0362 8.24271 14.8956 9.57604 14.406 10.1219ZM8.88411 5.35521L6.47266 4.39062V15.0552L10.6393 16.7219V8.35729C9.9737 7.46042 9.27891 6.38021 8.88411 5.35521Z" fill="#686A82"/>
</svg>
