<svg width="12" height="18" viewBox="0 0 12 18" fill="none" xmlns="http://www.w3.org/2000/svg">
<path d="M2.26788 2.7786H9.42573V1.31624C9.42573 0.945759 9.12237 0.666016 8.777 0.666016C8.70975 0.666016 8.64098 0.676606 8.57246 0.699217L2.26788 2.7786ZM10.7252 3.7532H0.816728C0.457879 3.7532 0.166992 4.04409 0.166992 4.40294V16.6829C0.166992 17.0418 0.457879 17.3327 0.816728 17.3327H10.7252C11.084 17.3327 11.3749 17.0418 11.3749 16.6829V4.40294C11.3749 4.04412 11.084 3.7532 10.7252 3.7532ZM2.52228 9.61135H2.66344C2.8735 8.26646 3.93877 7.20119 5.28366 6.99113V6.74696C5.28366 6.47784 5.50184 6.25966 5.77096 6.25966C6.04009 6.25966 6.25827 6.47784 6.25827 6.74696V6.99113C7.60315 7.20119 8.66843 8.26646 8.87849 9.61135H9.01964C9.28876 9.61135 9.50695 9.82953 9.50695 10.0987C9.50695 10.3678 9.28876 10.586 9.01964 10.586H2.52228C2.25316 10.586 2.03498 10.3678 2.03498 10.0987C2.03498 9.82953 2.25313 9.61135 2.52228 9.61135ZM5.53761 12.3898C5.53761 12.6589 5.31943 12.8771 5.05031 12.8771H2.71126C2.44214 12.8771 2.22396 12.6589 2.22396 12.3898C2.22396 12.1206 2.44214 11.9025 2.71126 11.9025H5.05031C5.31943 11.9025 5.53761 12.1206 5.53761 12.3898ZM8.89782 14.8263H2.64411C2.37499 14.8263 2.15681 14.6081 2.15681 14.339C2.15681 14.0698 2.37499 13.8517 2.64411 13.8517H8.89782C9.16694 13.8517 9.38512 14.0698 9.38512 14.339C9.38512 14.6081 9.16694 14.8263 8.89782 14.8263Z" fill="#B04759"/>
<path d="M7.88642 9.61113C7.66463 8.64806 6.80026 7.92773 5.77085 7.92773C4.74144 7.92773 3.87706 8.6481 3.65527 9.61113H7.88642Z" fill="#B04759"/>
</svg>
