<svg width="14" height="18" viewBox="0 0 14 18" fill="none" xmlns="http://www.w3.org/2000/svg">
<path d="M0.333984 14.8346V13.168H2.00065V7.33463C2.00065 6.18186 2.34787 5.15755 3.04232 4.26172C3.73676 3.36589 4.63954 2.77908 5.75065 2.5013V1.91797C5.75065 1.57075 5.87218 1.27561 6.11523 1.03255C6.35829 0.789497 6.65343 0.667969 7.00065 0.667969C7.34787 0.667969 7.64301 0.789497 7.88607 1.03255C8.12912 1.27561 8.25065 1.57075 8.25065 1.91797V2.5013C9.36176 2.77908 10.2645 3.36589 10.959 4.26172C11.6534 5.15755 12.0007 6.18186 12.0007 7.33463V13.168H13.6673V14.8346H0.333984ZM7.00065 17.3346C6.54232 17.3346 6.14996 17.1714 5.82357 16.8451C5.49718 16.5187 5.33398 16.1263 5.33398 15.668H8.66732C8.66732 16.1263 8.50412 16.5187 8.17773 16.8451C7.85135 17.1714 7.45898 17.3346 7.00065 17.3346Z" fill="#686A82"/>
</svg>
