<svg width="27" height="27" viewBox="0 0 27 27" fill="none" xmlns="http://www.w3.org/2000/svg">
<path fill-rule="evenodd" clip-rule="evenodd" d="M21.4983 10.6495C21.4156 11.007 21.2803 11.3503 21.097 11.6682L13.741 24.4069L14.1943 25.1935C14.5552 25.8179 15.1492 26.2734 15.8458 26.4599C16.5423 26.6464 17.2845 26.5487 17.909 26.1882L24.9757 22.1082C25.5996 21.7474 26.0549 21.1536 26.2414 20.4574C26.4279 19.7611 26.3304 19.0193 25.9703 18.3949L21.4983 10.6495ZM19.9637 8.76687C20.1252 9.44302 20.0216 10.1553 19.6743 10.7575L12.2477 23.6229C12.0691 23.9323 11.8313 24.2035 11.5479 24.421C11.2645 24.6386 10.9411 24.7981 10.596 24.8906C10.2509 24.9831 9.891 25.0067 9.5368 24.9601C9.1826 24.9135 8.84105 24.7975 8.53167 24.6189L1.46634 20.5389C0.842004 20.178 0.386511 19.584 0.199991 18.8875C0.0134718 18.1909 0.111192 17.4488 0.471671 16.8242L7.89834 3.96021C8.2463 3.35715 8.81226 2.91049 9.47967 2.71221L15.165 1.02287C15.5192 0.917612 15.8911 0.885611 16.258 0.928822C16.625 0.972034 16.9793 1.08955 17.2993 1.27421C17.6193 1.45886 17.8984 1.70679 18.1194 2.00285C18.3405 2.29891 18.4989 2.6369 18.585 2.99621L19.9637 8.76687ZM16.3743 5.59488C16.2875 5.75408 16.1696 5.89431 16.0277 6.00729C15.8858 6.12028 15.7228 6.20374 15.5482 6.25277C15.3736 6.30181 15.1909 6.31542 15.0109 6.2928C14.831 6.27019 14.6574 6.21181 14.5003 6.12109C14.3433 6.03038 14.2059 5.90917 14.0964 5.76459C13.9869 5.62002 13.9074 5.455 13.8626 5.27924C13.8178 5.10349 13.8087 4.92055 13.8356 4.74119C13.8626 4.56184 13.9252 4.38969 14.0197 4.23488C14.2046 3.93187 14.5007 3.71319 14.8447 3.62553C15.1887 3.53787 15.5533 3.58819 15.8607 3.76574C16.1681 3.94328 16.3939 4.23398 16.4899 4.57575C16.5858 4.91752 16.5444 5.28327 16.3743 5.59488ZM5.78767 14.0109C5.90767 14.4429 6.185 14.7842 6.62234 15.0375C7.05834 15.2882 7.493 15.3575 7.92767 15.2455C8.361 15.1335 8.71434 14.8389 8.99034 14.3629C9.17434 14.0429 9.27034 13.7322 9.27434 13.4282C9.28222 13.1332 9.2019 12.8426 9.04367 12.5935C8.88124 12.3358 8.65656 12.123 8.39034 11.9749C8.12575 11.8168 7.8262 11.7266 7.51834 11.7122C7.225 11.7042 6.949 11.7789 6.68767 11.9349C6.42634 12.0909 6.205 12.3295 6.021 12.6482C5.74634 13.1242 5.66767 13.5789 5.78767 14.0109ZM11.9157 14.1149C11.8261 14.0632 11.7253 14.0341 11.622 14.0299C11.5186 14.0257 11.4158 14.0466 11.3223 14.0909L5.74367 16.7175C5.59002 16.7899 5.47139 16.9202 5.41388 17.08C5.35637 17.2398 5.36469 17.4159 5.437 17.5695C5.50932 17.7232 5.63971 17.8418 5.79949 17.8993C5.95927 17.9568 6.13536 17.9485 6.289 17.8762L11.8677 15.2482C11.9735 15.1985 12.0636 15.1207 12.1283 15.0234C12.1931 14.9261 12.2299 14.8129 12.2349 14.6961C12.2398 14.5793 12.2127 14.4634 12.1564 14.3609C12.1001 14.2585 12.0169 14.1734 11.9157 14.1149ZM7.449 14.1749C7.325 14.2415 7.213 14.2469 7.11167 14.1882C7.01034 14.1295 6.95567 14.0282 6.94634 13.8842C6.94634 13.7375 7.01567 13.5442 7.15434 13.3029C7.293 13.0629 7.425 12.9082 7.549 12.8402C7.68234 12.7695 7.79834 12.7642 7.89967 12.8229C8.001 12.8815 8.05167 12.9829 8.05167 13.1295C8.061 13.2762 7.99567 13.4682 7.857 13.7082C7.71834 13.9482 7.58234 14.1042 7.449 14.1749ZM8.38767 18.9669C8.50767 19.3989 8.785 19.7402 9.221 19.9935C9.65834 20.2442 10.093 20.3135 10.5277 20.2029C10.961 20.0895 11.3143 19.7962 11.5903 19.3189C11.7743 18.9989 11.8703 18.6882 11.8743 18.3855C11.8825 18.0901 11.8022 17.799 11.6437 17.5495C11.4811 17.2919 11.2565 17.0791 10.9903 16.9309C10.7256 16.7733 10.4261 16.6836 10.1183 16.6695C9.825 16.6602 9.549 16.7349 9.28767 16.8909C9.02634 17.0469 8.805 17.2855 8.621 17.6042C8.345 18.0815 8.26767 18.5349 8.38767 18.9669ZM10.049 19.1309C9.925 19.1975 9.81167 19.2029 9.71034 19.1442C9.61034 19.0869 9.55434 18.9842 9.54634 18.8402C9.54634 18.6935 9.61567 18.5002 9.75434 18.2589C9.893 18.0189 10.025 17.8642 10.149 17.7962C10.2823 17.7269 10.3983 17.7202 10.4997 17.7789C10.601 17.8375 10.6517 17.9389 10.6517 18.0855C10.661 18.2322 10.5957 18.4242 10.457 18.6642C10.317 18.9055 10.1823 19.0615 10.049 19.1309Z" fill="#F49E10"/>
</svg>
