<svg width="20" height="11" viewBox="0 0 20 11" fill="none" xmlns="http://www.w3.org/2000/svg">
<path d="M15.7279 1.52776C16.1886 1.52776 16.6488 1.62809 17.096 1.82578C17.1555 1.85222 17.2207 1.86298 17.2854 1.85704C17.3502 1.85109 17.4124 1.82865 17.466 1.79184C17.5197 1.75513 17.5631 1.70535 17.5921 1.6472C17.6211 1.58904 17.6349 1.52444 17.632 1.45951C17.5954 0.641167 16.9267 0 16.1098 0H2.35979C1.51721 0 0.832031 0.685174 0.832031 1.52776V5.34722C0.832031 6.1898 1.51721 6.87501 2.35982 6.87501H11.1446C11.1947 6.87505 11.2444 6.86519 11.2908 6.84601C11.3371 6.82682 11.3792 6.79869 11.4147 6.76321C11.4502 6.72774 11.4783 6.68562 11.4975 6.63926C11.5167 6.59291 11.5265 6.54322 11.5265 6.49306V6.1111C11.5265 5.62247 11.7678 5.15848 12.1714 4.86976C12.2152 4.8385 12.252 4.79831 12.2792 4.75183C12.3064 4.70535 12.3234 4.65364 12.3292 4.6001C12.5175 2.84855 13.9789 1.52776 15.7279 1.52776ZM4.3583 3.4886C4.54106 3.59416 4.60373 3.82766 4.49817 4.01042C4.44745 4.0981 4.36402 4.16207 4.26619 4.18829C4.16835 4.21451 4.06411 4.20085 3.97635 4.15029L3.88758 4.09905V4.20138C3.88761 4.25155 3.87776 4.30124 3.85857 4.34759C3.83939 4.39395 3.81126 4.43607 3.77578 4.47154C3.74031 4.50702 3.69819 4.53515 3.65183 4.55433C3.60548 4.57352 3.55579 4.58338 3.50562 4.58334C3.45546 4.58337 3.40578 4.57351 3.35943 4.55432C3.31308 4.53514 3.27096 4.507 3.23549 4.47153C3.20002 4.43606 3.17189 4.39394 3.15271 4.34758C3.13353 4.30123 3.12367 4.25155 3.1237 4.20138V4.09905L3.03494 4.15029C2.94717 4.20084 2.84293 4.2145 2.7451 4.18828C2.64727 4.16206 2.56384 4.09809 2.51312 4.01042C2.40756 3.82766 2.47022 3.59416 2.65298 3.4886L2.74153 3.43751L2.65298 3.38641C2.47022 3.28085 2.40756 3.04735 2.51312 2.86459C2.61868 2.68183 2.85253 2.61917 3.03494 2.72473L3.1237 2.77593V2.67359C3.12367 2.62342 3.13353 2.57374 3.15271 2.52738C3.17189 2.48103 3.20003 2.43891 3.2355 2.40343C3.27098 2.36796 3.3131 2.33983 3.35945 2.32064C3.40581 2.30146 3.45549 2.2916 3.50566 2.29164C3.55583 2.2916 3.60551 2.30146 3.65187 2.32064C3.69822 2.33983 3.74034 2.36796 3.77582 2.40343C3.81129 2.43891 3.83943 2.48103 3.85861 2.52738C3.87779 2.57374 3.88765 2.62342 3.88762 2.67359V2.77593L3.97638 2.72469C4.15768 2.61913 4.39229 2.68179 4.4982 2.86455C4.60376 3.04731 4.5411 3.28081 4.35834 3.38637L4.26979 3.43747L4.3583 3.4886ZM7.41389 3.4886C7.59665 3.59416 7.65931 3.82766 7.55375 4.01042C7.50304 4.0981 7.41961 4.16207 7.32177 4.18829C7.22394 4.21451 7.1197 4.20085 7.03193 4.15029L6.94317 4.09905V4.20138C6.94317 4.41251 6.77233 4.58334 6.56121 4.58334C6.35009 4.58334 6.17925 4.41251 6.17925 4.20138V4.09905L6.09049 4.15029C6.00272 4.20084 5.89848 4.2145 5.80065 4.18828C5.70282 4.16206 5.61939 4.09809 5.56866 4.01042C5.4631 3.82766 5.52577 3.59416 5.70853 3.4886L5.79708 3.43751L5.70853 3.38641C5.52577 3.28085 5.4631 3.04735 5.56866 2.86459C5.67387 2.68183 5.90733 2.61917 6.09049 2.72473L6.17925 2.77597V2.67363C6.17925 2.46251 6.35009 2.29167 6.56121 2.29167C6.77233 2.29167 6.94317 2.46251 6.94317 2.67363V2.77597L7.03193 2.72473C7.21358 2.61917 7.44744 2.68183 7.55375 2.86459C7.65931 3.04735 7.59665 3.28085 7.41389 3.38641L7.32534 3.43751L7.41389 3.4886ZM10.4694 3.4886C10.6522 3.59416 10.7149 3.82766 10.6093 4.01042C10.5586 4.0981 10.4752 4.16207 10.3773 4.18829C10.2795 4.21451 10.1752 4.20085 10.0875 4.15029L9.99872 4.09905V4.20138C9.99875 4.25155 9.98889 4.30124 9.96971 4.34759C9.95052 4.39395 9.92239 4.43607 9.88692 4.47154C9.85144 4.50702 9.80932 4.53515 9.76297 4.55433C9.71661 4.57352 9.66693 4.58338 9.61676 4.58334C9.56659 4.58338 9.51691 4.57352 9.47055 4.55433C9.42419 4.53515 9.38207 4.50702 9.3466 4.47154C9.31113 4.43607 9.28299 4.39395 9.26381 4.34759C9.24463 4.30124 9.23477 4.25155 9.2348 4.20138V4.09905L9.14603 4.15029C9.05827 4.20084 8.95403 4.2145 8.8562 4.18828C8.75837 4.16206 8.67494 4.09809 8.62421 4.01042C8.51865 3.82766 8.58132 3.59416 8.76408 3.4886L8.85263 3.43751L8.76408 3.38641C8.58132 3.28085 8.51865 3.04735 8.62421 2.86459C8.72942 2.68183 8.96327 2.61917 9.14603 2.72473L9.2348 2.77597V2.67363C9.23477 2.62346 9.24463 2.57378 9.26381 2.52742C9.28299 2.48106 9.31113 2.43894 9.3466 2.40347C9.38207 2.368 9.42419 2.33986 9.47055 2.32068C9.51691 2.30149 9.56659 2.29164 9.61676 2.29167C9.66693 2.29164 9.71661 2.30149 9.76297 2.32068C9.80932 2.33986 9.85144 2.368 9.88692 2.40347C9.92239 2.43894 9.95052 2.48106 9.96971 2.52742C9.98889 2.57378 9.99875 2.62346 9.99872 2.67363V2.77597L10.0875 2.72473C10.2695 2.61917 10.5034 2.68183 10.6093 2.86459C10.7149 3.04735 10.6522 3.28085 10.4694 3.38641L10.3809 3.43751L10.4694 3.4886Z" fill="#B04759"/>
<path d="M18.4021 5.34758V4.96562C18.4021 3.49154 17.2026 2.29199 15.7285 2.29199C14.2544 2.29199 13.0549 3.49154 13.0549 4.96562V5.34758C12.6338 5.34758 12.291 5.69036 12.291 6.11146V9.93092C12.291 10.352 12.6338 10.6948 13.0549 10.6948H18.4021C18.8232 10.6948 19.166 10.352 19.166 9.93092V6.11146C19.166 5.69036 18.8232 5.34758 18.4021 5.34758ZM16.1105 8.28568V8.78508C16.1105 8.83525 16.1007 8.88494 16.0815 8.93129C16.0623 8.97765 16.0342 9.01977 15.9987 9.05524C15.9632 9.09072 15.9211 9.11885 15.8747 9.13803C15.8284 9.15722 15.7787 9.16707 15.7285 9.16704C15.6784 9.16707 15.6287 9.15722 15.5823 9.13803C15.536 9.11885 15.4938 9.09072 15.4584 9.05524C15.4229 9.01977 15.3948 8.97765 15.3756 8.93129C15.3564 8.88494 15.3465 8.83525 15.3466 8.78508V8.28568C15.1225 8.15233 14.9646 7.91822 14.9646 7.63925C14.9646 7.21815 15.3074 6.87537 15.7285 6.87537C16.1496 6.87537 16.4924 7.21815 16.4924 7.63925C16.4924 7.91826 16.3345 8.15233 16.1105 8.28568ZM16.8744 5.34758H14.5827V4.96562C14.5827 4.33376 15.0967 3.81978 15.7285 3.81978C16.3604 3.81978 16.8744 4.33376 16.8744 4.96562V5.34758Z" fill="#B04759"/>
</svg>
