<svg width="20" height="19" viewBox="0 0 20 19" fill="none" xmlns="http://www.w3.org/2000/svg">
<path d="M7.82362 5.34135C7.72746 4.86058 7.70343 4.57212 7.82362 4.1875C7.84766 4.11538 7.87169 4.04327 7.89573 4.01923C7.91977 4.04327 7.91977 4.09135 7.94381 4.16346C8.03996 4.69231 8.03996 4.86058 7.89573 5.55769C7.84766 5.46154 7.82362 5.41346 7.82362 5.34135ZM8.20823 8.37019C8.13612 8.61058 8.03996 8.875 7.94381 9.21154C7.67939 10.0048 7.55919 10.3173 7.51112 10.4856C7.439 10.726 7.439 10.726 7.27073 11.1106L7.24669 11.1587C7.19862 11.3029 7.1265 11.4471 7.05439 11.5913C7.58323 11.375 7.94381 11.2548 8.54477 11.0625L8.88131 10.9423C9.12169 10.8702 9.33804 10.7981 9.50631 10.726C9.57843 10.7019 9.65054 10.6779 9.72266 10.6538C9.57843 10.4856 9.45823 10.2933 9.28996 10.0769C8.85727 9.5 8.56881 9.01923 8.20823 8.37019ZM3.95343 14.5C3.78516 14.9327 3.85727 14.9808 3.88131 15.0048C3.95343 15.0529 4.07362 15.101 4.16977 15.0288C4.314 14.8846 4.36208 14.7885 4.60246 14.3317C4.67458 14.2115 4.74669 14.0433 4.84285 13.875C4.86689 13.8269 4.89093 13.7788 4.91496 13.7308C4.48227 13.9712 4.02554 14.2596 3.95343 14.5ZM12.8717 11.6635C12.9678 11.6394 13.0159 11.6154 13.0159 11.6154C13.0159 11.5913 13.0159 11.5192 13.0159 11.4471C13.0159 11.4231 12.9438 11.3269 12.7034 11.2788C12.3428 11.2067 12.1025 11.2067 11.8861 11.2067C11.814 11.2067 11.7419 11.2067 11.6938 11.2067C12.1025 11.5433 12.2948 11.6394 12.415 11.6635C12.463 11.6875 12.6794 11.6875 12.8717 11.6635ZM15.8765 10.5817V14.0433L11.1169 18.875H3.35246C2.03035 18.875 0.972656 17.7933 0.972656 16.4471V2.55288C0.972656 1.20673 2.03035 0.125 3.35246 0.125H13.4967C14.6986 0.125 15.6602 1.01442 15.8525 2.16827C13.5448 2.19231 11.6698 4.06731 11.6698 6.375C11.6698 8.70673 13.5448 10.5817 15.8765 10.5817ZM14.7227 14.524H12.2948C11.8861 14.524 11.5736 14.8365 11.5736 15.2452V17.7212L14.7227 14.524ZM12.8477 10.3173C12.415 10.2452 12.1265 10.2452 11.8621 10.2452C11.5977 10.2452 11.3813 10.2692 11.0448 10.3173C10.9486 10.3413 10.8284 10.3654 10.7563 10.3654C10.5159 10.125 10.3477 9.88461 10.0832 9.52404C9.57843 8.80288 9.26593 8.29808 8.76112 7.40865C8.689 7.28846 8.61689 7.14423 8.54477 7.02404C8.59285 6.80769 8.64092 6.56731 8.689 6.27885L8.76112 5.94231C8.95343 5.02885 9.0015 4.71635 8.85727 3.97115C8.689 3.15385 8.13612 2.96154 7.84766 2.98558C7.70342 2.98558 7.1265 3.08173 6.88612 3.92308C6.71785 4.5 6.74189 4.93269 6.88612 5.53365C6.98227 5.96635 7.19862 6.49519 7.55919 7.14423C7.439 7.64904 7.29477 8.10577 7.03035 8.875C6.76593 9.66827 6.64573 9.98077 6.59766 10.1731C6.52554 10.3894 6.52554 10.3894 6.38131 10.75L6.35727 10.7981C6.189 11.2548 5.90054 11.8077 5.70823 12.1683C5.41977 12.3125 5.13131 12.4567 4.72266 12.6971C3.85727 13.2019 3.25631 13.5625 3.03996 14.1394C2.91977 14.4519 2.63131 15.2212 3.25631 15.726C3.47266 15.9183 3.76112 16.0144 4.02554 16.0144C4.314 16.0144 4.57843 15.9183 4.79477 15.726C5.05919 15.4615 5.20343 15.2212 5.44381 14.7644C5.51593 14.6442 5.58804 14.5 5.68419 14.3077C6.06881 13.5625 6.30919 13.0577 6.35727 12.9856C6.35727 12.9615 6.38131 12.9375 6.40535 12.9135C6.57362 12.8413 6.76593 12.7692 6.98227 12.6731C7.77554 12.3365 8.11208 12.2404 8.83323 12L9.16977 11.8798C9.43419 11.7837 9.6265 11.7356 9.81881 11.6635C10.0592 11.5673 10.2515 11.5192 10.4438 11.4471C10.6121 11.5913 10.7803 11.7596 10.9967 11.9279C11.4534 12.3125 11.7659 12.5048 12.1025 12.601C12.3909 12.6731 12.7996 12.649 13.064 12.5769C13.9053 12.3606 13.9294 11.7356 13.9534 11.4712C13.9775 11.1106 13.7611 10.4856 12.8477 10.3173ZM19.4823 6.375C19.4823 8.37019 17.8717 9.98077 15.8765 9.98077C13.8813 9.98077 12.2707 8.37019 12.2707 6.375C12.2707 4.37981 13.8813 2.76923 15.8765 2.76923C17.8717 2.76923 19.4823 4.37981 19.4823 6.375ZM17.3428 5.50962L16.1409 4.30769L16.1169 4.28365C16.0688 4.25962 15.9967 4.21154 15.9246 4.21154C15.9005 4.21154 15.8765 4.21154 15.8525 4.21154C15.7563 4.21154 15.6842 4.25962 15.6121 4.30769L14.4102 5.50962C14.338 5.58173 14.314 5.67788 14.314 5.77404C14.314 5.87019 14.338 5.96635 14.4102 6.03846C14.5544 6.18269 14.7707 6.18269 14.915 6.03846L15.4919 5.46154V8.20192C15.4919 8.39423 15.6602 8.5625 15.8525 8.5625C16.0448 8.5625 16.213 8.39423 16.213 8.20192V5.4375L16.79 6.01442C16.9342 6.15865 17.1505 6.15865 17.2948 6.01442C17.463 5.89423 17.463 5.65385 17.3428 5.50962Z" fill="#F49E10"/>
</svg>
