<svg width="18" height="14" viewBox="0 0 18 14" fill="none" xmlns="http://www.w3.org/2000/svg">
<path d="M9.00115 6.79297C10.7245 6.79297 12.1261 5.39047 12.1261 3.66797C12.1261 1.94547 10.7245 0.542969 9.00115 0.542969C7.27781 0.542969 5.87615 1.94547 5.87615 3.66797C5.87615 5.39047 7.27781 6.79297 9.00115 6.79297ZM14.4178 8.11214C15.7003 8.11214 16.7445 7.0688 16.7445 5.7863C16.7445 4.5038 15.7003 3.45964 14.4178 3.45964C13.1353 3.45964 12.0911 4.5038 12.0911 5.7863C12.0911 7.0688 13.1353 8.11214 14.4178 8.11214ZM3.58448 8.11214C4.86698 8.11214 5.91115 7.0688 5.91115 5.7863C5.91115 4.5038 4.86698 3.45964 3.58448 3.45964C2.30198 3.45964 1.25781 4.5038 1.25781 5.7863C1.25781 7.0688 2.30198 8.11214 3.58448 8.11214Z" fill="#818397"/>
<path fill-rule="evenodd" clip-rule="evenodd" d="M8.9987 7.21094C7.72787 7.21094 6.50909 7.71577 5.61048 8.61438C4.71187 9.513 4.20703 10.7318 4.20703 12.0026V12.8359C4.20703 13.1809 4.48703 13.4609 4.83203 13.4609H13.1654C13.3311 13.4609 13.4901 13.3951 13.6073 13.2779C13.7245 13.1607 13.7904 13.0017 13.7904 12.8359V12.0026C13.7904 10.7318 13.2855 9.513 12.3869 8.61438C11.4883 7.71577 10.2695 7.21094 8.9987 7.21094Z" fill="#818397"/>
<path d="M3.58464 8.875C2.64567 8.8761 1.74547 9.2496 1.08152 9.91355C0.417564 10.5775 0.0440715 11.4777 0.0429688 12.4167C0.0429688 12.9908 0.510469 13.4583 1.08464 13.4583H3.39297C3.11077 13.0242 2.96027 12.5178 2.95964 12C2.95964 10.8617 3.28214 9.79917 3.8313 8.89C3.74964 8.88417 3.66797 8.875 3.58464 8.875ZM14.418 8.875C14.3346 8.875 14.253 8.88417 14.1713 8.89C14.7408 9.82744 15.0423 10.9031 15.043 12C15.043 12.5383 14.8813 13.0367 14.6096 13.4583H16.918C17.4921 13.4583 17.9596 12.9908 17.9596 12.4167C17.9585 11.4777 17.585 10.5775 16.9211 9.91355C16.2571 9.2496 15.3569 8.8761 14.418 8.875Z" fill="#818397"/>
</svg>
