<svg width="18" height="18" viewBox="0 0 18 18" fill="none" xmlns="http://www.w3.org/2000/svg">
<path d="M15.5094 12.5283C14.422 11.5982 13.3184 11.0349 12.2444 11.9635L11.6031 12.5248C11.1338 12.9322 10.2614 14.8358 6.88824 10.9555C3.51578 7.08008 5.52268 6.47668 5.99261 6.07277L6.63746 5.51081C7.70589 4.58006 7.30268 3.40838 6.53209 2.20228L6.06707 1.47173C5.29298 0.268437 4.45004 -0.521817 3.3788 0.407522L2.79999 0.913285C2.32654 1.25819 1.00312 2.37929 0.682105 4.50912C0.295759 7.06462 1.51451 9.99102 4.30674 13.2019C7.09546 16.4142 9.82588 18.0277 12.4123 17.9996C14.5618 17.9765 15.8599 16.823 16.2659 16.4037L16.8468 15.8972C17.9153 14.9686 17.2515 14.0231 16.1634 13.0909L15.5094 12.5283Z" fill="#4FAD53"/>
</svg>
