<svg width="20" height="20" viewBox="0 0 20 20" fill="none" xmlns="http://www.w3.org/2000/svg">
<path d="M10 10C8.69375 10 7.57552 9.5349 6.64531 8.60469C5.7151 7.67448 5.25 6.55625 5.25 5.25C5.25 3.94375 5.7151 2.82552 6.64531 1.89531C7.57552 0.965104 8.69375 0.5 10 0.5C11.3062 0.5 12.4245 0.965104 13.3547 1.89531C14.2849 2.82552 14.75 3.94375 14.75 5.25C14.75 6.55625 14.2849 7.67448 13.3547 8.60469C12.4245 9.5349 11.3062 10 10 10ZM0.5 17.125V16.175C0.5 15.5021 0.673177 14.8836 1.01953 14.3195C1.36589 13.7555 1.82604 13.325 2.4 13.0281C3.62708 12.4146 4.87396 11.9544 6.14062 11.6477C7.40729 11.3409 8.69375 11.1875 10 11.1875C11.3062 11.1875 12.5927 11.3409 13.8594 11.6477C15.126 11.9544 16.3729 12.4146 17.6 13.0281C18.174 13.325 18.6341 13.7555 18.9805 14.3195C19.3268 14.8836 19.5 15.5021 19.5 16.175V17.125C19.5 17.7781 19.2674 18.3372 18.8023 18.8023C18.3372 19.2674 17.7781 19.5 17.125 19.5H2.875C2.22187 19.5 1.66276 19.2674 1.19766 18.8023C0.732552 18.3372 0.5 17.7781 0.5 17.125Z" fill="#F49E10"/>
</svg>
