<svg width="20" height="20" viewBox="0 0 20 20" fill="none" xmlns="http://www.w3.org/2000/svg">
<path d="M19.4757 17.0049L11.6333 9.16249L2.47086 0H1.7548L1.60859 0.371523C1.22269 1.35215 1.05781 2.35511 1.13183 3.27187C1.21621 4.31687 1.6132 5.22159 2.27996 5.88835L9.43268 13.0411L10.3761 12.0976L16.9888 19.4919C17.6466 20.1497 18.7788 20.1888 19.4757 19.4919C20.1614 18.8062 20.1614 17.6906 19.4757 17.0049ZM6.11815 11.3844L0.516171 16.9864C-0.169453 17.672 -0.169453 18.7877 0.516171 19.4733C1.1675 20.1247 2.29425 20.1822 3.00308 19.4733L8.6051 13.8713L6.11815 11.3844ZM19.1465 3.33003L15.9687 6.50776L15.1397 5.67878L18.3174 2.50101L17.4884 1.67203L14.3107 4.84976L13.4817 4.02078L16.6595 0.843046L15.8306 0.0141015L11.6856 4.15902C11.1789 4.66531 10.8756 5.33988 10.833 6.05491C10.8222 6.2362 10.7811 6.41452 10.7129 6.58413L13.4054 9.27667C13.5751 9.20842 13.7534 9.16737 13.9347 9.15655C14.6497 9.11405 15.3243 8.81067 15.8306 8.30393L19.9755 4.15906L19.1465 3.33003Z" fill="#F49E10"/>
</svg>
