<svg width="43" height="59" viewBox="0 0 43 59" fill="none" xmlns="http://www.w3.org/2000/svg">
<path d="M39.3935 30.7753C41.3647 27.2568 42.4755 23.4944 42.0453 18.9936C41.0629 8.79139 32.6258 0.66299 22.3972 0.0401991C10.1589 -0.704582 0.000976562 8.99684 0.000976562 21.0674C0.000976562 29.4141 5.34962 34.7175 10.0369 40.894C14.127 46.2873 17.6265 51.565 19.9252 57.9213C20.1884 58.6468 21.1965 58.6596 21.4919 57.9405C23.6879 52.6435 26.8084 47.7961 30.2115 43.199C31.9452 40.8491 33.7623 38.5633 35.5794 36.284C37.0305 34.4799 38.334 32.6629 39.3935 30.7753Z" fill="#FBD89F"/>
<path d="M3.15479 21.1458C3.15479 11.4068 11.0498 3.51172 20.7889 3.51172C30.5279 3.51172 38.4229 11.4068 38.4229 21.1458C38.4229 30.8848 30.5279 38.7799 20.7889 38.7799C11.0498 38.7799 3.15479 30.8848 3.15479 21.1458Z" fill="#FEF5E7"/>
<g clip-path="url(#clip0_3712_5995)">
<path d="M30.4816 28.0049L22.6392 20.1625L13.4767 11H12.7607L12.6145 11.3715C12.2286 12.3521 12.0637 13.3551 12.1377 14.2719C12.2221 15.3169 12.6191 16.2216 13.2858 16.8884L20.4386 24.0411L21.382 23.0977L27.9947 30.4919C28.6525 31.1497 29.7847 31.1888 30.4816 30.4919C31.1673 29.8062 31.1673 28.6906 30.4816 28.0049ZM17.124 22.3845L11.522 27.9864C10.8364 28.6721 10.8364 29.7877 11.522 30.4734C12.1734 31.1247 13.3001 31.1822 14.0089 30.4734L19.611 24.8713L17.124 22.3845ZM30.1523 14.33L26.9746 17.5078L26.1455 16.6788L29.3233 13.501L28.4943 12.672L25.3166 15.8498L24.4876 15.0208L27.6654 11.843L26.8364 11.0141L22.6915 15.159C22.1848 15.6653 21.8814 16.3399 21.8389 17.0549C21.828 17.2362 21.787 17.4145 21.7188 17.5841L24.4113 20.2767C24.5809 20.2084 24.7593 20.1674 24.9405 20.1566C25.6556 20.1141 26.3302 19.8107 26.8364 19.3039L30.9814 15.1591L30.1523 14.33Z" fill="#F49E10"/>
</g>
<defs>
<clipPath id="clip0_3712_5995">
<rect width="20" height="20" fill="white" transform="translate(11.0005 11)"/>
</clipPath>
</defs>
</svg>
