<svg width="19" height="19" viewBox="0 0 19 19" fill="none" xmlns="http://www.w3.org/2000/svg">
<path d="M15.5706 6.78105L14.3375 7.27918C14.1801 7.34323 14.0118 7.37613 13.8419 7.37605C13.6608 7.37536 13.4817 7.33754 13.3158 7.26494C13.1499 7.19234 13.0006 7.0865 12.8772 6.95396C12.7538 6.82141 12.6589 6.66498 12.5983 6.49431C12.5377 6.32364 12.5128 6.14237 12.525 5.96168L12.6181 4.63543L11.7625 3.61793C11.579 3.39575 11.4741 3.11907 11.4644 2.83105H3.35625C1.8875 2.83105 0.6875 4.03105 0.6875 5.50605V12.9436C0.6875 14.4186 1.8875 15.6123 3.35625 15.6123H5.3875L5.34375 16.8561C5.33865 17.0324 5.36899 17.208 5.43298 17.3723C5.49698 17.5367 5.59332 17.6866 5.71629 17.8131C5.83927 17.9396 5.98638 18.0401 6.14892 18.1086C6.31145 18.1772 6.48609 18.2125 6.6625 18.2123C6.9375 18.2123 7.2125 18.1186 7.44375 17.9436L10.5437 15.6123H14.1187C15.5875 15.6123 16.7875 14.4186 16.7875 12.9436V7.27293L15.5706 6.78105ZM9.04812 11.2061H5.7675C5.61831 11.2061 5.47524 11.1468 5.36975 11.0413C5.26426 10.9358 5.205 10.7927 5.205 10.6436C5.205 10.4944 5.26426 10.3513 5.36975 10.2458C5.47524 10.1403 5.61831 10.0811 5.7675 10.0811H9.04812C9.19731 10.0811 9.34038 10.1403 9.44587 10.2458C9.55136 10.3513 9.61062 10.4944 9.61062 10.6436C9.61062 10.7927 9.55136 10.9358 9.44587 11.0413C9.34038 11.1468 9.19731 11.2061 9.04812 11.2061ZM11.9562 8.3648H5.76875C5.61956 8.3648 5.47649 8.30554 5.371 8.20005C5.26551 8.09456 5.20625 7.95149 5.20625 7.8023C5.20625 7.65312 5.26551 7.51005 5.371 7.40456C5.47649 7.29907 5.61956 7.2398 5.76875 7.2398H11.9562C12.1054 7.2398 12.2485 7.29907 12.354 7.40456C12.4595 7.51005 12.5187 7.65312 12.5187 7.8023C12.5187 7.95149 12.4595 8.09456 12.354 8.20005C12.2485 8.30554 12.1054 8.3648 11.9562 8.3648Z" fill="#B04759"/>
<path d="M15.8957 0.533762L16.8013 1.98314L18.4594 2.39626C18.7344 2.46501 18.8426 2.79751 18.6607 3.01501L17.5619 4.32376L17.6813 6.02814C17.6858 6.09302 17.6737 6.15799 17.6462 6.21694C17.6187 6.27588 17.5767 6.32687 17.5241 6.36511C17.4715 6.40335 17.41 6.42759 17.3455 6.43556C17.2809 6.44352 17.2154 6.43495 17.1551 6.41064L15.5707 5.77001L13.9863 6.41064C13.926 6.43495 13.8605 6.44352 13.7959 6.43556C13.7314 6.42759 13.6699 6.40335 13.6173 6.36511C13.5647 6.32687 13.5226 6.27588 13.4951 6.21694C13.4676 6.15799 13.4556 6.09302 13.4601 6.02814L13.5794 4.32376L12.4807 3.01501C12.4389 2.96514 12.4105 2.90547 12.3981 2.8416C12.3857 2.77773 12.3898 2.71176 12.4099 2.6499C12.4301 2.58803 12.4656 2.53229 12.5132 2.48793C12.5607 2.44356 12.6188 2.41202 12.6819 2.39626L14.3401 1.98314L15.2457 0.533762C15.2801 0.47861 15.328 0.433127 15.3849 0.401594C15.4417 0.370061 15.5057 0.353516 15.5707 0.353516C15.6357 0.353516 15.6996 0.370061 15.7565 0.401594C15.8134 0.433127 15.8613 0.47861 15.8957 0.533762Z" fill="#B04759"/>
</svg>
