<svg width="18" height="10" viewBox="0 0 18 10" fill="none" xmlns="http://www.w3.org/2000/svg">
<path d="M17.3129 8.78652L15.4547 0.635643C15.4136 0.455061 15.3123 0.293812 15.1675 0.178324C15.0227 0.0628354 14.843 -4.11367e-05 14.6578 2.01921e-08H3.33227C3.25564 6.23819e-05 3.18 0.0173717 3.11097 0.050645C3.04194 0.0839182 2.98128 0.132302 2.93349 0.19221C2.8857 0.252118 2.85201 0.322013 2.83491 0.396715C2.81781 0.471416 2.81774 0.549009 2.83471 0.62374L4.77854 9.15017C4.81968 9.33075 4.92095 9.492 5.06574 9.60749C5.21054 9.72298 5.39027 9.78585 5.57548 9.78581H16.5159C17.0409 9.78581 17.4295 9.29836 17.3129 8.78652ZM12.6336 4.21858L9.50242 6.74032C9.44711 6.78457 9.38359 6.81745 9.31552 6.83704C9.24745 6.85663 9.17617 6.86256 9.1058 6.85449C9.03542 6.84641 8.96735 6.82448 8.90548 6.78998C8.84362 6.75547 8.7892 6.70906 8.74536 6.65342L7.51514 5.08395C7.42738 4.97212 7.38763 4.83 7.40465 4.68886C7.42168 4.54772 7.49407 4.41913 7.6059 4.33136C7.71774 4.2436 7.85986 4.20385 8.001 4.22088C8.14214 4.2379 8.27073 4.31029 8.3585 4.42212L9.25364 5.56485L11.9623 3.38296C12.073 3.29394 12.2146 3.25252 12.3559 3.26781C12.4972 3.2831 12.6266 3.35384 12.7157 3.46449C12.8043 3.57561 12.8453 3.71721 12.8299 3.85844C12.8146 3.99968 12.744 4.12912 12.6336 4.21858ZM3.73401 9.38824L2.14431 2.41402L1.59735 4.80958L0.686736 8.78533C0.573654 9.29718 0.960515 9.78521 1.48427 9.78521H3.87805C3.81544 9.65865 3.76713 9.5255 3.73401 9.38824Z" fill="#B04759"/>
</svg>
