<svg width="15" height="15" viewBox="0 0 15 15" fill="none" xmlns="http://www.w3.org/2000/svg">
<path d="M1.66629 14.4445C1.66629 14.5918 1.72482 14.7331 1.82901 14.8373C1.93319 14.9415 2.07449 15 2.22183 15H12.2215C12.3688 15 12.5101 14.9415 12.6143 14.8373C12.7185 14.7331 12.777 14.5918 12.777 14.4445V12.7779H1.66629V14.4445ZM14.2253 3.44762C14.1426 3.38473 14.0439 3.3462 13.9405 3.33639C13.837 3.32657 13.7329 3.34585 13.6398 3.39206L9.73546 5.34422L7.73775 0.349944C7.69662 0.246674 7.62544 0.158121 7.53343 0.0957349C7.44143 0.0333491 7.33282 0 7.22166 0C7.1105 0 7.00189 0.0333491 6.90989 0.0957349C6.81788 0.158121 6.74671 0.246674 6.70557 0.349944L4.70786 5.34422L0.803546 3.39206C0.710521 3.34565 0.60634 3.32627 0.502849 3.33613C0.399358 3.34599 0.30071 3.38469 0.218122 3.44784C0.135534 3.51098 0.0723206 3.59603 0.0356696 3.69331C-0.000981469 3.7906 -0.00959942 3.89621 0.0107957 3.99815L1.54408 11.6668H12.8992L14.4325 3.99815C14.4529 3.89627 14.4442 3.79073 14.4076 3.69352C14.371 3.5963 14.3078 3.5113 14.2253 3.44817V3.44762ZM7.22166 9.44463C6.89185 9.40391 6.59103 9.23586 6.38344 8.97636C6.17584 8.71687 6.07792 8.3865 6.11059 8.05579C6.07792 7.72509 6.17584 7.39472 6.38344 7.13522C6.59103 6.87573 6.89185 6.70768 7.22166 6.66695C7.55147 6.70768 7.85229 6.87573 8.05988 7.13522C8.26748 7.39472 8.3654 7.72509 8.33273 8.05579C8.3654 8.3865 8.26748 8.71687 8.05988 8.97636C7.85229 9.23586 7.55147 9.40391 7.22166 9.44463Z" fill="#009ED4"/>
</svg>
