<svg width="40" height="40" viewBox="0 0 40 40" fill="none" xmlns="http://www.w3.org/2000/svg">
<rect width="40" height="40" rx="20" fill="#FEF5E7"/>
<path d="M31.0002 21.0002C31.2502 21.0002 31.5003 20.7501 31.5003 20.5V17.5C31.5003 16.6499 30.8504 16 30.0003 16H26V30.0002H29.9998C30.8499 30.0002 31.4998 29.3502 31.4998 28.5002V25.5002C31.4996 25.3676 31.4468 25.2405 31.3531 25.1468C31.2593 25.053 31.1323 25.0003 30.9997 25C30.4746 24.9919 29.9738 24.7776 29.6054 24.4034C29.237 24.0292 29.0305 23.5252 29.0305 23.0001C29.0305 22.475 29.237 21.9709 29.6054 21.5968C29.9738 21.2226 30.4746 21.0083 30.9997 21.0002H31.0002Z" fill="#F49E10"/>
<path d="M30.6516 14.5007C30.9016 14.4009 31.0514 14.1009 30.9516 13.8508L29.9512 11.0005C29.7012 10.2004 28.7992 9.80054 28.0514 10.0506L13.8516 14.9505H29.8514C30.0885 14.7531 30.3597 14.6007 30.6516 14.5007Z" fill="#F49E10"/>
<path d="M8.5 17.5V20.5C8.5 20.8 8.70016 21.0002 9.00016 21.0002C9.2654 20.9961 9.52881 21.0447 9.77505 21.1434C10.0213 21.2421 10.2455 21.3887 10.4345 21.5748C10.6235 21.761 10.7736 21.9828 10.8761 22.2275C10.9785 22.4722 11.0313 22.7348 11.0313 23.0001C11.0313 23.2654 10.9785 23.528 10.8761 23.7727C10.7736 24.0173 10.6235 24.2392 10.4345 24.4253C10.2455 24.6114 10.0213 24.7581 9.77505 24.8568C9.52881 24.9554 9.2654 25.0041 9.00016 25C8.70016 25 8.5 25.2002 8.5 25.5002V28.5002C8.5 29.3502 9.14992 30.0002 10 30.0002H25V16H10C9.15184 16 8.5 16.6499 8.5 17.5ZM14.5 19.9998H17.5C17.8 19.9998 18.0002 20.2 18.0002 20.5C18.0002 20.8 17.8 21.0002 17.5 21.0002H14.5C14.2 21.0002 13.9998 20.8 13.9998 20.5C13.9998 20.2 14.2 19.9998 14.5 19.9998ZM14.5 22.4997H20.9997C21.2997 22.4997 21.4998 22.6998 21.4998 22.9998C21.4998 23.2998 21.2997 23.5 20.9997 23.5H14.5C14.2 23.5 13.9998 23.2998 13.9998 22.9998C13.9998 22.6998 14.2 22.4997 14.5 22.4997ZM14.5 24.9995H20.9997C21.2997 24.9995 21.4998 25.1997 21.4998 25.4997C21.4998 25.7997 21.2997 25.9998 20.9997 25.9998H14.5C14.2 25.9998 13.9998 25.7997 13.9998 25.4997C13.9998 25.1997 14.2 25 14.5 25V24.9995Z" fill="#F49E10"/>
</svg>
