<svg width="24" height="21" viewBox="0 0 24 21" fill="none" xmlns="http://www.w3.org/2000/svg">
<path d="M23.0002 12.0002C23.2502 12.0002 23.5003 11.7501 23.5003 11.5V8.5C23.5003 7.64992 22.8504 7 22.0003 7H18V21.0002H21.9998C22.8499 21.0002 23.4998 20.3502 23.4998 19.5002V16.5002C23.4996 16.3676 23.4468 16.2405 23.3531 16.1468C23.2593 16.053 23.1323 16.0003 22.9997 16C22.4746 15.9919 21.9738 15.7776 21.6054 15.4034C21.237 15.0292 21.0305 14.5252 21.0305 14.0001C21.0305 13.475 21.237 12.9709 21.6054 12.5968C21.9738 12.2226 22.4746 12.0083 22.9997 12.0002H23.0002Z" fill="#4FAD53"/>
<path d="M22.6516 5.5007C22.9016 5.40086 23.0514 5.10086 22.9516 4.85078L21.9512 2.00054C21.7012 1.20038 20.7992 0.800537 20.0514 1.05062L5.85156 5.95046H21.8514C22.0885 5.75311 22.3597 5.60069 22.6516 5.5007Z" fill="#4FAD53"/>
<path d="M0.5 8.5V11.5C0.5 11.8 0.70016 12.0002 1.00016 12.0002C1.2654 11.9961 1.52881 12.0447 1.77505 12.1434C2.02129 12.2421 2.24545 12.3887 2.43447 12.5748C2.6235 12.761 2.77361 12.9828 2.87607 13.2275C2.97854 13.4722 3.0313 13.7348 3.0313 14.0001C3.0313 14.2654 2.97854 14.528 2.87607 14.7727C2.77361 15.0173 2.6235 15.2392 2.43447 15.4253C2.24545 15.6114 2.02129 15.7581 1.77505 15.8568C1.52881 15.9554 1.2654 16.0041 1.00016 16C0.70016 16 0.5 16.2002 0.5 16.5002V19.5002C0.5 20.3502 1.14992 21.0002 2 21.0002H17V7H2C1.15184 7 0.5 7.64992 0.5 8.5ZM6.5 10.9998H9.5C9.8 10.9998 10.0002 11.2 10.0002 11.5C10.0002 11.8 9.8 12.0002 9.5 12.0002H6.5C6.2 12.0002 5.99984 11.8 5.99984 11.5C5.99984 11.2 6.2 10.9998 6.5 10.9998ZM6.5 13.4997H12.9997C13.2997 13.4997 13.4998 13.6998 13.4998 13.9998C13.4998 14.2998 13.2997 14.5 12.9997 14.5H6.5C6.2 14.5 5.99984 14.2998 5.99984 13.9998C5.99984 13.6998 6.2 13.4997 6.5 13.4997ZM6.5 15.9995H12.9997C13.2997 15.9995 13.4998 16.1997 13.4998 16.4997C13.4998 16.7997 13.2997 16.9998 12.9997 16.9998H6.5C6.2 16.9998 5.99984 16.7997 5.99984 16.4997C5.99984 16.1997 6.2 16 6.5 16V15.9995Z" fill="#4FAD53"/>
</svg>
