<svg width="25" height="16" viewBox="0 0 25 16" fill="none" xmlns="http://www.w3.org/2000/svg">
<path d="M0.75 0H24.75V16.0002H0.75V0Z" fill="#F0F0F0"/>
<path d="M14.25 0H11.25V6.49997H0.75V9.49997H11.25V15.9999H14.25V9.49997H24.75V6.49997H14.25V0Z" fill="#D80027"/>
<path d="M19.2086 10.7832L24.75 13.8618V10.7832H19.2086ZM15.3586 10.7832L24.75 16.0006V14.5252L18.0143 10.7832H15.3586ZM22.2484 16.0006L15.3586 12.1726V16.0006H22.2484Z" fill="#0052B4"/>
<path d="M15.3586 10.7832L24.75 16.0006V14.5252L18.0143 10.7832H15.3586Z" fill="#F0F0F0"/>
<path d="M15.3586 10.7832L24.75 16.0006V14.5252L18.0143 10.7832H15.3586Z" fill="#D80027"/>
<path d="M4.98473 10.7832L0.75 13.1359V10.7832H4.98473ZM10.1413 11.4467V16.0006H1.94489L10.1413 11.4467Z" fill="#0052B4"/>
<path d="M7.48561 10.7832L0.75 14.5252V16.0006L10.1413 10.7832H7.48561Z" fill="#D80027"/>
<path d="M6.29133 5.21737L0.75 2.13881V5.21737H6.29133ZM10.1413 5.21737L0.75 0V1.47534L7.48561 5.21737H10.1413ZM3.25153 0L10.1413 3.828V0H3.25153Z" fill="#0052B4"/>
<path d="M10.1413 5.21737L0.75 0V1.47534L7.48561 5.21737H10.1413Z" fill="#F0F0F0"/>
<path d="M10.1413 5.21737L0.75 0V1.47534L7.48561 5.21737H10.1413Z" fill="#D80027"/>
<path d="M20.5152 5.21742L24.75 2.86477V5.21742H20.5152ZM15.3586 4.55395V0H23.5551L15.3586 4.55395Z" fill="#0052B4"/>
<path d="M18.0143 5.21737L24.75 1.47534V0L15.3586 5.21737H18.0143Z" fill="#D80027"/>
</svg>
