<svg width="19" height="18" viewBox="0 0 19 18" fill="none" xmlns="http://www.w3.org/2000/svg">
<path fill-rule="evenodd" clip-rule="evenodd" d="M2.47723 0.132812H3.14225C3.32696 0.132812 3.47762 0.283479 3.47762 0.468185V2.16713C3.47762 2.35183 3.32696 2.5025 3.14225 2.5025H2.47723C2.29253 2.5025 2.1419 2.35187 2.1419 2.16713V0.468185C2.1419 0.283479 2.29253 0.132812 2.47723 0.132812ZM13.6641 0.132812H14.3292C14.5139 0.132812 14.6645 0.283479 14.6645 0.468185V2.16713C14.6645 2.35183 14.5139 2.5025 14.3292 2.5025H13.6641C13.4795 2.5025 13.3288 2.35187 13.3288 2.16713V0.468185C13.3288 0.283479 13.4795 0.132812 13.6641 0.132812ZM9.93519 0.132812H10.6002C10.7849 0.132812 10.9356 0.283479 10.9356 0.468185V2.16713C10.9356 2.35183 10.7849 2.5025 10.6002 2.5025H9.93519C9.75049 2.5025 9.59982 2.35187 9.59982 2.16713V0.468185C9.59982 0.283479 9.75049 0.132812 9.93519 0.132812ZM6.20621 0.132812H6.87123C7.05594 0.132812 7.20657 0.283479 7.20657 0.468185V2.16713C7.20657 2.35183 7.05594 2.5025 6.87123 2.5025H6.20621C6.02151 2.5025 5.87088 2.35187 5.87088 2.16713V0.468185C5.87088 0.283479 6.02151 0.132812 6.20621 0.132812ZM10.9766 15.2367H1.42743C0.688565 15.2367 0.0859375 14.6341 0.0859375 13.8952V4.49309H16.7205V10.0672C16.2441 9.88736 15.7284 9.78889 15.1903 9.78889C12.7928 9.78889 10.8368 11.7448 10.8368 14.1424C10.8368 14.5201 10.8854 14.8869 10.9766 15.2367ZM5.03331 6.17599C4.98898 6.17599 4.94647 6.1936 4.91513 6.22494C4.88378 6.25629 4.86617 6.2988 4.86617 6.34313V7.49811C4.86617 7.52006 4.87049 7.54179 4.87889 7.56207C4.88728 7.58235 4.89959 7.60078 4.91511 7.6163C4.93064 7.63182 4.94906 7.64413 4.96934 7.65253C4.98962 7.66093 5.01136 7.66525 5.03331 7.66524H6.18829C6.21024 7.66526 6.23199 7.66095 6.25227 7.65255C6.27255 7.64416 6.29099 7.63185 6.30651 7.61633C6.32203 7.6008 6.33434 7.58237 6.34274 7.56209C6.35113 7.5418 6.35544 7.52006 6.35543 7.49811V6.34313C6.35543 6.2988 6.33782 6.25629 6.30647 6.22494C6.27513 6.1936 6.23262 6.17599 6.18829 6.17599H5.03331ZM5.03331 11.7607C5.01136 11.7607 4.98962 11.765 4.96933 11.7734C4.94905 11.7818 4.93061 11.7941 4.91509 11.8097C4.89957 11.8252 4.88726 11.8436 4.87886 11.8639C4.87047 11.8842 4.86616 11.9059 4.86617 11.9279V13.0829C4.86617 13.1272 4.88378 13.1697 4.91513 13.2011C4.94647 13.2324 4.98898 13.25 5.03331 13.25H6.18829C6.23262 13.25 6.27513 13.2324 6.30647 13.2011C6.33782 13.1697 6.35543 13.1272 6.35543 13.0829V11.9279C6.35543 11.9059 6.35111 11.8842 6.34272 11.8639C6.33432 11.8436 6.32201 11.8252 6.30649 11.8097C6.29097 11.7942 6.27254 11.7818 6.25226 11.7734C6.23198 11.765 6.21024 11.7607 6.18829 11.7607H5.03331ZM7.82574 8.96838C7.78142 8.96838 7.73891 8.98599 7.70757 9.01732C7.67623 9.04866 7.65862 9.09116 7.65861 9.13548V10.2905C7.65861 10.3125 7.66293 10.3342 7.67133 10.3545C7.67973 10.3748 7.69204 10.3932 7.70756 10.4087C7.72308 10.4242 7.74151 10.4365 7.76178 10.4449C7.78206 10.4533 7.80379 10.4576 7.82574 10.4576H8.98072C9.02504 10.4576 9.06755 10.44 9.09889 10.4087C9.13024 10.3774 9.14785 10.3349 9.14786 10.2905V9.13548C9.14786 9.11353 9.14354 9.0918 9.13514 9.07152C9.12674 9.05125 9.11442 9.03283 9.0989 9.01731C9.08338 9.00179 9.06496 8.98949 9.04468 8.98109C9.0244 8.9727 9.00267 8.96838 8.98072 8.96838H7.82574ZM2.24092 11.7607C2.19659 11.7607 2.15408 11.7783 2.12273 11.8097C2.09139 11.841 2.07378 11.8835 2.07378 11.9279V13.0829C2.07378 13.1272 2.09139 13.1697 2.12273 13.2011C2.15408 13.2324 2.19659 13.25 2.24092 13.25H3.39594C3.41789 13.25 3.43962 13.2457 3.4599 13.2373C3.48018 13.2289 3.49861 13.2166 3.51413 13.2011C3.52965 13.1856 3.54197 13.1671 3.55036 13.1469C3.55876 13.1266 3.56308 13.1048 3.56307 13.0829V11.9279C3.56307 11.8836 3.54547 11.841 3.51409 11.8097C3.49858 11.7942 3.48017 11.7819 3.45989 11.7735C3.43962 11.7651 3.41789 11.7607 3.39594 11.7607H2.24092ZM7.82574 11.7607C7.80379 11.7607 7.78205 11.765 7.76176 11.7734C7.74148 11.7818 7.72305 11.7941 7.70752 11.8097C7.692 11.8252 7.67969 11.8436 7.6713 11.8639C7.6629 11.8842 7.65859 11.9059 7.65861 11.9279V13.0829C7.65861 13.1272 7.67621 13.1697 7.70756 13.2011C7.7389 13.2324 7.78141 13.25 7.82574 13.25H8.98072C9.02505 13.25 9.06756 13.2324 9.09891 13.2011C9.13025 13.1697 9.14786 13.1272 9.14786 13.0829V11.9279C9.14787 11.9059 9.14355 11.8842 9.13515 11.8639C9.12675 11.8436 9.11444 11.8252 9.09892 11.8097C9.0834 11.7942 9.06497 11.7818 9.04469 11.7734C9.02441 11.765 9.00267 11.7607 8.98072 11.7607H7.82574ZM13.4105 6.17599C13.3886 6.17598 13.3668 6.1803 13.3466 6.1887C13.3263 6.1971 13.3079 6.20941 13.2923 6.22493C13.2768 6.24045 13.2645 6.25888 13.2561 6.27916C13.2477 6.29944 13.2434 6.32118 13.2434 6.34313V7.49811C13.2434 7.54242 13.261 7.58493 13.2924 7.61626C13.3079 7.63179 13.3263 7.64411 13.3466 7.65252C13.3668 7.66092 13.3886 7.66525 13.4105 7.66524H14.5655C14.6099 7.66524 14.6524 7.64764 14.6837 7.61626C14.6992 7.60075 14.7115 7.58234 14.72 7.56206C14.7284 7.54179 14.7327 7.52005 14.7327 7.49811V6.34313C14.7327 6.32117 14.7284 6.29943 14.72 6.27915C14.7116 6.25886 14.6993 6.24043 14.6838 6.22491C14.6682 6.20938 14.6498 6.19707 14.6295 6.18868C14.6092 6.18029 14.5875 6.17597 14.5655 6.17599H13.4105ZM10.6181 6.17599C10.5961 6.17598 10.5744 6.1803 10.5541 6.1887C10.5338 6.1971 10.5154 6.20941 10.4999 6.22493C10.4844 6.24045 10.4721 6.25888 10.4637 6.27916C10.4553 6.29944 10.451 6.32118 10.451 6.34313V7.49811C10.451 7.54242 10.4686 7.58493 10.4999 7.61626C10.5154 7.63179 10.5339 7.64411 10.5541 7.65252C10.5744 7.66092 10.5961 7.66525 10.6181 7.66524H11.7731C11.8174 7.66524 11.86 7.64763 11.8913 7.61629C11.9226 7.58495 11.9403 7.54243 11.9403 7.49811V6.34313C11.9403 6.2988 11.9226 6.25629 11.8913 6.22494C11.86 6.1936 11.8174 6.17599 11.7731 6.17599H10.6181ZM2.24092 6.17599C2.19659 6.17599 2.15408 6.1936 2.12273 6.22494C2.09139 6.25629 2.07378 6.2988 2.07378 6.34313V7.49811C2.07378 7.52006 2.0781 7.54179 2.08649 7.56207C2.09489 7.58235 2.1072 7.60078 2.12272 7.6163C2.13824 7.63182 2.15667 7.64413 2.17695 7.65253C2.19723 7.66093 2.21897 7.66525 2.24092 7.66524H3.39594C3.44025 7.66524 3.48276 7.64764 3.51409 7.61626C3.52962 7.60075 3.54194 7.58234 3.55035 7.56206C3.55875 7.54179 3.56308 7.52005 3.56307 7.49811V6.34313C3.56309 6.32117 3.55878 6.29943 3.55038 6.27915C3.54199 6.25886 3.52968 6.24043 3.51416 6.22491C3.49863 6.20938 3.4802 6.19707 3.45992 6.18868C3.43963 6.18029 3.41789 6.17597 3.39594 6.17599H2.24092ZM2.24092 8.96838C2.21897 8.96838 2.19724 8.9727 2.17696 8.98109C2.15668 8.98949 2.13826 9.00179 2.12274 9.01731C2.10722 9.03283 2.0949 9.05125 2.0865 9.07152C2.0781 9.0918 2.07378 9.11353 2.07378 9.13548V10.2905C2.07378 10.3125 2.0781 10.3342 2.0865 10.3545C2.0949 10.3748 2.10722 10.3932 2.12274 10.4087C2.13826 10.4242 2.15668 10.4365 2.17696 10.4449C2.19724 10.4533 2.21897 10.4576 2.24092 10.4576H3.39594C3.41788 10.4576 3.43962 10.4533 3.4599 10.4449C3.48017 10.4365 3.4986 10.4242 3.51412 10.4087C3.52964 10.3932 3.54195 10.3748 3.55035 10.3545C3.55875 10.3342 3.56307 10.3125 3.56307 10.2905V9.13548C3.56307 9.11353 3.55875 9.0918 3.55035 9.07152C3.54195 9.05125 3.52964 9.03283 3.51412 9.01731C3.4986 9.00179 3.48017 8.98949 3.4599 8.98109C3.43962 8.9727 3.41788 8.96838 3.39594 8.96838H2.24092ZM7.82574 6.17599C7.78141 6.17599 7.7389 6.1936 7.70756 6.22494C7.67621 6.25629 7.65861 6.2988 7.65861 6.34313V7.49811C7.6586 7.52006 7.66292 7.54179 7.67132 7.56207C7.67971 7.58235 7.69203 7.60078 7.70755 7.6163C7.72307 7.63182 7.7415 7.64413 7.76178 7.65253C7.78206 7.66093 7.80379 7.66525 7.82574 7.66524H8.98072C9.00268 7.66526 9.02442 7.66095 9.0447 7.65255C9.06499 7.64416 9.08342 7.63185 9.09894 7.61633C9.11446 7.6008 9.12677 7.58237 9.13517 7.56209C9.14356 7.5418 9.14787 7.52006 9.14786 7.49811V6.34313C9.14786 6.2988 9.13025 6.25629 9.09891 6.22494C9.06756 6.1936 9.02505 6.17599 8.98072 6.17599H7.82574ZM10.6181 8.96838C10.5961 8.96838 10.5744 8.9727 10.5541 8.98109C10.5339 8.98949 10.5154 9.00179 10.4999 9.01731C10.4844 9.03283 10.4721 9.05125 10.4637 9.07152C10.4553 9.0918 10.451 9.11353 10.451 9.13548V10.2905C10.451 10.3125 10.4553 10.3342 10.4637 10.3545C10.4721 10.3748 10.4844 10.3932 10.4999 10.4087C10.5154 10.4242 10.5339 10.4365 10.5541 10.4449C10.5744 10.4533 10.5961 10.4576 10.6181 10.4576H11.7731C11.7951 10.4576 11.8168 10.4533 11.8371 10.4449C11.8574 10.4365 11.8758 10.4242 11.8913 10.4087C11.9068 10.3932 11.9191 10.3748 11.9275 10.3545C11.9359 10.3342 11.9403 10.3125 11.9403 10.2905V9.13548C11.9403 9.11353 11.9359 9.0918 11.9275 9.07152C11.9191 9.05125 11.9068 9.03283 11.8913 9.01731C11.8758 9.00179 11.8574 8.98949 11.8371 8.98109C11.8168 8.9727 11.7951 8.96838 11.7731 8.96838H10.6181ZM5.03331 8.96838C4.98899 8.96838 4.94648 8.98599 4.91514 9.01732C4.8838 9.04866 4.86618 9.09116 4.86617 9.13548V10.2905C4.86617 10.3125 4.8705 10.3342 4.8789 10.3545C4.8873 10.3748 4.89961 10.3932 4.91513 10.4087C4.93065 10.4242 4.94907 10.4365 4.96935 10.4449C4.98963 10.4533 5.01136 10.4576 5.03331 10.4576H6.18829C6.23261 10.4576 6.27512 10.44 6.30646 10.4087C6.3378 10.3774 6.35542 10.3349 6.35543 10.2905V9.13548C6.35543 9.11353 6.3511 9.0918 6.3427 9.07152C6.3343 9.05125 6.32199 9.03283 6.30647 9.01731C6.29095 9.00179 6.27253 8.98949 6.25225 8.98109C6.23197 8.9727 6.21024 8.96838 6.18829 8.96838H5.03331ZM15.292 1.25171H15.379C16.1179 1.25171 16.7205 1.85434 16.7205 2.59324V3.86568H0.0859375V2.59324C0.0859375 1.85434 0.688565 1.25171 1.42743 1.25171H1.51445V2.16713C1.51445 2.69752 1.947 3.12995 2.47723 3.12995H3.14225C3.67253 3.12995 4.10507 2.6974 4.10507 2.16713V1.25171H5.24343V2.16713C5.24343 2.69752 5.67594 3.12995 6.20621 3.12995H6.87123C7.40151 3.12995 7.83402 2.6974 7.83402 2.16713V1.25171H8.97237V2.16713C8.97237 2.69752 9.40492 3.12995 9.93519 3.12995H10.6002C11.1304 3.12995 11.5631 2.69736 11.5631 2.16713V1.25171H12.7014V2.16713C12.7014 2.69752 13.1339 3.12995 13.6641 3.12995H14.3292C14.8594 3.12995 15.292 2.6974 15.292 2.16713V1.25171ZM15.1903 17.8673C13.1383 17.8673 11.4643 16.1944 11.4643 14.1424C11.4643 12.0904 13.1383 10.4163 15.1903 10.4163C17.2423 10.4163 18.9153 12.0904 18.9153 14.1424C18.9153 16.1944 17.2423 17.8673 15.1903 17.8673ZM14.3966 14.1424L13.3951 15.1439C13.1761 15.3629 13.1761 15.7197 13.3951 15.9376C13.613 16.1554 13.9698 16.1554 14.1877 15.9376L15.1903 14.9349L16.1919 15.9376C16.4109 16.1554 16.7677 16.1554 16.9855 15.9376C17.2034 15.7197 17.2034 15.3629 16.9855 15.1439L15.9829 14.1424L16.9855 13.1397C17.2034 12.9218 17.2034 12.565 16.9855 12.3472C16.7677 12.1282 16.4109 12.1282 16.1919 12.3472L15.1903 13.3487L14.1877 12.3472C13.9698 12.1282 13.613 12.1282 13.3951 12.3472C13.1761 12.565 13.1761 12.9218 13.3951 13.1397L14.3966 14.1424Z" fill="#B04759"/>
</svg>
