<svg width="43" height="59" viewBox="0 0 43 59" fill="none" xmlns="http://www.w3.org/2000/svg">
<path d="M39.3935 30.7753C41.3647 27.2568 42.4755 23.4944 42.0453 18.9936C41.0629 8.79139 32.6258 0.66299 22.3972 0.0401991C10.1589 -0.704582 0.000976562 8.99684 0.000976562 21.0674C0.000976562 29.4141 5.34962 34.7175 10.0369 40.894C14.127 46.2873 17.6265 51.565 19.9252 57.9213C20.1884 58.6468 21.1965 58.6596 21.4919 57.9405C23.6879 52.6435 26.8084 47.7961 30.2115 43.199C31.9452 40.8491 33.7623 38.5633 35.5794 36.284C37.0305 34.4799 38.334 32.6629 39.3935 30.7753Z" fill="#9AD8ED"/>
<path d="M3.15479 21.1458C3.15479 11.4068 11.0498 3.51172 20.7889 3.51172C30.5279 3.51172 38.4229 11.4068 38.4229 21.1458C38.4229 30.8848 30.5279 38.7799 20.7889 38.7799C11.0498 38.7799 3.15479 30.8848 3.15479 21.1458Z" fill="#E6F5FB"/>
<path d="M17.0413 16.8333C17.0413 14.6508 18.8172 12.875 20.9997 12.875C23.1822 12.875 24.958 14.6508 24.958 16.8333C24.958 19.0158 23.1822 20.7917 20.9997 20.7917C18.8172 20.7917 17.0413 19.0158 17.0413 16.8333ZM23.4997 22.0417H18.4997C15.858 22.0417 13.708 24.1917 13.708 26.8333C13.7084 27.441 13.95 28.0236 14.3797 28.4533C14.8094 28.883 15.392 29.1246 15.9997 29.125H25.9997C26.6073 29.1246 27.19 28.883 27.6196 28.4533C28.0493 28.0236 28.2909 27.441 28.2913 26.8333C28.2913 24.1917 26.1413 22.0417 23.4997 22.0417Z" fill="#009ED4"/>
</svg>
