<svg width="40" height="40" viewBox="0 0 40 40" fill="none" xmlns="http://www.w3.org/2000/svg">
<rect width="40" height="40" rx="20" fill="#FEF5E7"/>
<g clip-path="url(#clip0_1248_11586)">
<path d="M24.5 20C24.5 21.0406 24.4438 22.0437 24.3453 23H15.6547C15.5563 22.0437 15.4578 21.0406 15.4578 20C15.4578 18.9594 15.5563 17.9563 15.6547 17H24.3453C24.4438 17.9563 24.5 18.9594 24.5 20ZM31.6203 17C31.8687 17.9609 32 18.9641 32 20C32 21.0359 31.8687 22.0391 31.6203 23H25.85C25.9484 22.0344 26 20.9891 26 20C26 18.9688 25.9484 17.9656 25.85 17H31.6203ZM31.1281 15.5H25.6578C25.1891 12.5066 24.2609 9.99781 23.0656 8.39572C26.7406 9.36359 29.7219 12.0284 31.1281 15.5ZM24.1391 15.5H15.8609C16.1469 13.7937 16.5875 12.2834 17.1266 11.0633C17.6187 9.95656 18.1672 9.15359 18.6969 8.64734C19.2219 8.14897 19.6578 8 20 8C20.3422 8 20.7781 8.14897 21.3031 8.64734C21.8328 9.15359 22.3812 9.95656 22.8734 11.0633C23.4125 12.2834 23.8531 13.7937 24.1391 15.5ZM8.87234 15.5C10.2777 12.0284 13.2594 9.36359 16.9344 8.39572C15.7391 9.99781 14.8109 12.5066 14.3422 15.5H8.87234ZM14.15 17C14.0516 17.9656 13.9578 18.9688 13.9578 20C13.9578 20.9891 14.0516 22.0344 14.15 23H8.37805C8.13125 22.0391 8 21.0359 8 20C8 18.9641 8.13125 17.9609 8.37805 17H14.15ZM17.1266 28.9344C16.5875 27.7156 16.1469 26.2062 15.8609 24.5H24.1391C23.8531 26.2062 23.4125 27.7156 22.8734 28.9344C22.3812 30.0453 21.8328 30.8469 21.3031 31.3531C20.7781 31.85 20.3422 32 19.9578 32C19.6578 32 19.2219 31.85 18.6969 31.3531C18.1672 30.8469 17.6187 30.0453 17.1266 28.9344ZM16.9344 31.6063C13.2594 30.6359 10.2777 27.9734 8.87234 24.5H14.3422C14.8109 27.4953 15.7391 30.0031 16.9344 31.6063ZM23.0656 31.6063C24.2609 30.0031 25.1891 27.4953 25.6578 24.5H31.1281C29.7219 27.9734 26.7406 30.6359 23.0656 31.6063Z" fill="#F49E10"/>
</g>
<defs>
<clipPath id="clip0_1248_11586">
<rect width="24" height="24" fill="white" transform="translate(8 8)"/>
</clipPath>
</defs>
</svg>
