<svg width="24" height="20" viewBox="0 0 24 20" fill="none" xmlns="http://www.w3.org/2000/svg">
<path d="M2.5838 14.9965C2.13403 14.5468 1.73461 14.0692 1.37982 13.577C0.763643 13.963 0.306846 14.3248 0.0843308 14.5106C0.0411218 14.5466 0.0123128 14.597 0.0031646 14.6525C-0.00598357 14.708 0.00513955 14.765 0.0345027 14.813C0.496925 15.5705 2.50885 18.5934 5.43689 19.0761C6.73135 19.2896 8.0153 18.9751 9.10416 18.5089C7.161 18.0114 4.59567 17.0085 2.5838 14.9965ZM22.6202 13.577C22.2654 14.0693 21.866 14.5468 21.4162 14.9966C19.4043 17.0085 16.839 18.0115 14.8958 18.5089C15.9848 18.9751 17.2687 19.2896 18.5631 19.0761C21.4912 18.5934 23.5031 15.5705 23.9655 14.813C23.9949 14.765 24.006 14.708 23.9968 14.6525C23.9877 14.597 23.9589 14.5466 23.9157 14.5106C23.6932 14.3248 23.2364 13.963 22.6202 13.577ZM7.47957 6.34414C7.73466 5.32681 8.09963 4.3873 8.49858 3.5555C7.368 2.50911 6.30624 1.83622 5.84616 1.56533C5.81657 1.54787 5.7835 1.53714 5.7493 1.53389C5.71509 1.53064 5.68059 1.53495 5.64824 1.54652C5.61589 1.55809 5.58648 1.57664 5.5621 1.60085C5.53772 1.62506 5.51896 1.65433 5.50716 1.6866C5.31947 2.19828 4.91278 3.4317 4.70611 5.00375C5.6086 5.33277 6.56049 5.76833 7.47957 6.34414ZM19.2939 5.00375C19.0872 3.4317 18.6805 2.19828 18.4928 1.6866C18.4811 1.65432 18.4623 1.62504 18.4379 1.60083C18.4135 1.57662 18.3841 1.55807 18.3518 1.5465C18.3194 1.53492 18.2849 1.53061 18.2507 1.53387C18.2165 1.53712 18.1834 1.54786 18.1538 1.56533C17.6938 1.83617 16.632 2.50911 15.5014 3.5555C15.9004 4.3873 16.2653 5.32677 16.5204 6.34414C17.4395 5.76833 18.3914 5.33277 19.2939 5.00375ZM7.11296 9.21885C7.11296 8.75094 7.14361 8.29194 7.19878 7.84363C4.46297 5.93314 1.2181 5.50747 0.259784 5.42075C0.225004 5.41757 0.18995 5.42209 0.157109 5.43397C0.124267 5.44585 0.094441 5.46481 0.0697452 5.48951C0.0450494 5.51421 0.0260882 5.54403 0.0142058 5.57687C0.00232328 5.60971 -0.00218957 5.64477 0.000987082 5.67955C0.103034 6.8067 0.673362 11.0974 3.57811 14.0022C5.50978 15.9338 8.05406 16.833 9.87361 17.2487C8.72953 15.589 7.11296 12.638 7.11296 9.21885ZM23.7402 5.42075C22.7819 5.50747 19.537 5.93314 16.8012 7.84367C16.8564 8.29194 16.887 8.75094 16.887 9.21885C16.887 12.638 15.2704 15.589 14.1263 17.2487C15.9459 16.8329 18.4902 15.9338 20.4219 14.0021C23.3266 11.0974 23.897 6.80666 23.999 5.6795C24.0022 5.64473 23.9977 5.60968 23.9858 5.57684C23.9739 5.54401 23.9549 5.51419 23.9302 5.48949C23.9055 5.4648 23.8757 5.44585 23.8429 5.43397C23.81 5.42209 23.775 5.41758 23.7402 5.42075ZM15.4808 9.21885C15.4808 13.2598 12.8931 16.6409 12.18 17.4959C12.158 17.5223 12.1305 17.5436 12.0994 17.5582C12.0683 17.5728 12.0343 17.5803 12 17.5803C11.9656 17.5803 11.9317 17.5728 11.9006 17.5582C11.8695 17.5436 11.8419 17.5223 11.82 17.4959C11.1069 16.6409 8.51916 13.2598 8.51916 9.21885C8.51916 5.17794 11.1069 1.7968 11.82 0.941799C11.842 0.915392 11.8695 0.894144 11.9006 0.879562C11.9317 0.864981 11.9657 0.857422 12 0.857422C12.0344 0.857422 12.0683 0.864981 12.0994 0.879562C12.1305 0.894144 12.1581 0.915392 12.18 0.941799C12.8931 1.7968 15.4808 5.17799 15.4808 9.21885Z" fill="#4FAD53"/>
</svg>
