<svg width="43" height="59" viewBox="0 0 43 59" fill="none" xmlns="http://www.w3.org/2000/svg">
<path d="M39.3935 30.7753C41.3647 27.2568 42.4755 23.4944 42.0453 18.9936C41.0629 8.79139 32.6258 0.66299 22.3972 0.0401991C10.1589 -0.704582 0.000976562 8.99684 0.000976562 21.0674C0.000976562 29.4141 5.34962 34.7175 10.0369 40.894C14.127 46.2873 17.6265 51.565 19.9252 57.9213C20.1884 58.6468 21.1965 58.6596 21.4919 57.9405C23.6879 52.6435 26.8084 47.7961 30.2115 43.199C31.9452 40.8491 33.7623 38.5633 35.5794 36.284C37.0305 34.4799 38.334 32.6629 39.3935 30.7753Z" fill="#B8DEBA"/>
<path d="M3.15479 21.1458C3.15479 11.4068 11.0498 3.51172 20.7889 3.51172C30.5279 3.51172 38.4229 11.4068 38.4229 21.1458C38.4229 30.8848 30.5279 38.7799 20.7889 38.7799C11.0498 38.7799 3.15479 30.8848 3.15479 21.1458Z" fill="#EDF7EE"/>
<g clip-path="url(#clip0_3710_5712)">
<path d="M13.1537 25.1615C12.7788 24.7867 12.446 24.3888 12.1503 23.9785C11.6369 24.3002 11.2562 24.6017 11.0708 24.7566C11.0348 24.7866 11.0107 24.8286 11.0031 24.8748C10.9955 24.9211 11.0048 24.9685 11.0292 25.0085C11.4146 25.6398 13.0912 28.1589 15.5312 28.5612C16.6099 28.739 17.6799 28.477 18.5873 28.0885C16.968 27.6739 14.8302 26.8381 13.1537 25.1615ZM29.8507 23.9785C29.555 24.3888 29.2221 24.7867 28.8473 25.1615C27.1707 26.8382 25.033 27.6739 23.4137 28.0885C24.3211 28.477 25.391 28.739 26.4697 28.5612C28.9098 28.1589 30.5864 25.6398 30.9717 25.0085C30.9962 24.9685 31.0055 24.9211 30.9979 24.8748C30.9902 24.8286 30.9662 24.7866 30.9302 24.7566C30.7448 24.6017 30.3642 24.3002 29.8507 23.9785ZM17.2335 17.9512C17.446 17.1034 17.7502 16.3205 18.0826 15.6273C17.1405 14.7553 16.2557 14.1946 15.8723 13.9688C15.8476 13.9543 15.8201 13.9453 15.7916 13.9426C15.7631 13.9399 15.7343 13.9435 15.7074 13.9532C15.6804 13.9628 15.6559 13.9783 15.6356 13.9984C15.6153 14.0186 15.5996 14.043 15.5898 14.0699C15.4334 14.4963 15.0945 15.5241 14.9222 16.8342C15.6743 17.1084 16.4676 17.4713 17.2335 17.9512ZM27.0787 16.8342C26.9065 15.5241 26.5676 14.4963 26.4112 14.0699C26.4014 14.043 26.3857 14.0186 26.3654 13.9984C26.3451 13.9782 26.3206 13.9628 26.2936 13.9531C26.2667 13.9435 26.2379 13.9399 26.2094 13.9426C26.1809 13.9453 26.1534 13.9543 26.1287 13.9688C25.7453 14.1945 24.8605 14.7553 23.9183 15.6273C24.2508 16.3205 24.5549 17.1034 24.7675 17.9512C25.5334 17.4713 26.3267 17.1084 27.0787 16.8342ZM16.928 20.3468C16.928 19.9568 16.9535 19.5743 16.9995 19.2007C14.7196 17.6087 12.0156 17.2539 11.217 17.1817C11.188 17.179 11.1588 17.1828 11.1314 17.1927C11.104 17.2026 11.0792 17.2184 11.0586 17.239C11.038 17.2596 11.0222 17.2844 11.0123 17.3118C11.0024 17.3392 10.9987 17.3684 11.0013 17.3973C11.0863 18.3366 11.5616 21.9122 13.9822 24.3329C15.592 25.9426 17.7122 26.6919 19.2285 27.0383C18.2751 25.6552 16.928 23.196 16.928 20.3468ZM30.784 17.1817C29.9854 17.2539 27.2813 17.6087 25.0015 19.2008C25.0475 19.5743 25.073 19.9568 25.073 20.3468C25.073 23.1961 23.7258 25.6552 22.7724 27.0383C24.2887 26.6918 26.409 25.9426 28.0187 24.3328C30.4394 21.9122 30.9147 18.3366 30.9997 17.3973C31.0023 17.3683 30.9985 17.3391 30.9886 17.3118C30.9787 17.2844 30.9629 17.2595 30.9424 17.239C30.9218 17.2184 30.8969 17.2026 30.8696 17.1927C30.8422 17.1828 30.813 17.179 30.784 17.1817ZM23.9012 20.3468C23.9012 23.7142 21.7447 26.5318 21.1505 27.2443C21.1322 27.2663 21.1092 27.284 21.0833 27.2962C21.0574 27.3084 21.0291 27.3147 21.0005 27.3147C20.9718 27.3147 20.9436 27.3084 20.9176 27.2962C20.8917 27.284 20.8688 27.2663 20.8505 27.2443C20.2562 26.5318 18.0998 23.7142 18.0998 20.3468C18.0998 16.9793 20.2563 14.1617 20.8505 13.4492C20.8688 13.4272 20.8917 13.4095 20.9177 13.3974C20.9436 13.3852 20.9719 13.3789 21.0005 13.3789C21.0291 13.3789 21.0574 13.3852 21.0834 13.3974C21.1093 13.4095 21.1322 13.4272 21.1505 13.4492C21.7447 14.1617 23.9012 16.9794 23.9012 20.3468Z" fill="#4FAD53"/>
</g>
<defs>
<clipPath id="clip0_3710_5712">
<rect width="20" height="20" fill="white" transform="translate(11.0005 11)"/>
</clipPath>
</defs>
</svg>
