<svg width="19" height="16" viewBox="0 0 19 16" fill="none" xmlns="http://www.w3.org/2000/svg">
<path d="M17.048 3.84602C17.0606 4.01521 17.0606 4.18344 17.0606 4.35167C17.0606 9.5 13.142 15.4324 5.98076 15.4324C3.77448 15.4324 1.72481 14.7934 0 13.6834C0.313251 13.7192 0.614899 13.7318 0.940719 13.7318C2.69356 13.736 4.39677 13.1499 5.7758 12.0679C4.96311 12.0532 4.1753 11.785 3.52237 11.3009C2.86943 10.8168 2.38398 10.1409 2.13378 9.36755C2.37452 9.40332 2.61622 9.42749 2.86953 9.42749C3.21855 9.42749 3.56951 9.37915 3.89533 9.29503C3.01335 9.11696 2.22028 8.6389 1.65096 7.94214C1.08165 7.24539 0.771228 6.37295 0.772491 5.47318V5.42484C1.29168 5.71392 1.89401 5.89472 2.53211 5.91889C1.99754 5.56366 1.55921 5.08164 1.25623 4.51583C0.953248 3.95001 0.795031 3.318 0.795695 2.67617C0.795695 1.95298 0.988093 1.28974 1.32551 0.711582C2.30407 1.9153 3.52456 2.90004 4.90792 3.60205C6.29128 4.30406 7.80667 4.70767 9.35594 4.78674C9.296 4.49669 9.25926 4.19601 9.25926 3.89436C9.25901 3.38288 9.35956 2.87635 9.55518 2.40375C9.7508 1.93115 10.0377 1.50174 10.3993 1.14007C10.761 0.77839 11.1904 0.491544 11.663 0.295924C12.1356 0.100304 12.6421 -0.000253674 13.1536 4.80572e-07C14.2751 4.80572e-07 15.2874 0.469876 15.999 1.2298C16.8708 1.0612 17.7069 0.742928 18.4702 0.28908C18.1796 1.18901 17.5708 1.95212 16.7579 2.43543C17.5312 2.34723 18.2869 2.14388 19 1.83213C18.4674 2.60858 17.8074 3.28946 17.048 3.84602Z" fill="#818397"/>
</svg>
