<svg width="40" height="40" viewBox="0 0 40 40" fill="none" xmlns="http://www.w3.org/2000/svg">
<rect width="40" height="40" rx="20" fill="#FEF5E7"/>
<path d="M29.6568 15.0137C29.6719 15.2167 29.6719 15.4186 29.6719 15.6204C29.6719 21.7984 24.9696 28.9173 16.3761 28.9173C13.7286 28.9173 11.269 28.1505 9.19922 26.8186C9.57512 26.8615 9.9371 26.8766 10.3281 26.8766C12.4315 26.8817 14.4753 26.1783 16.1302 24.8799C15.1549 24.8622 14.2096 24.5405 13.4261 23.9596C12.6425 23.3786 12.06 22.5675 11.7598 21.6395C12.0486 21.6824 12.3387 21.7114 12.6427 21.7114C13.0615 21.7114 13.4826 21.6534 13.8736 21.5525C12.8152 21.3388 11.8636 20.7651 11.1804 19.929C10.4972 19.0929 10.1247 18.046 10.1262 16.9663V16.9082C10.7492 17.2551 11.472 17.4721 12.2377 17.5011C11.5963 17.0748 11.0703 16.4964 10.7067 15.8174C10.3431 15.1384 10.1533 14.38 10.1541 13.6098C10.1541 12.742 10.3849 11.9461 10.7898 11.2523C11.9641 12.6968 13.4287 13.8785 15.0887 14.7209C16.7488 15.5633 18.5672 16.0476 20.4264 16.1425C20.3544 15.7945 20.3103 15.4336 20.3103 15.0717C20.31 14.4579 20.4307 13.8501 20.6654 13.2829C20.9002 12.7158 21.2444 12.2005 21.6784 11.7665C22.1124 11.3325 22.6277 10.9883 23.1948 10.7535C23.762 10.5188 24.3698 10.3981 24.9836 10.3984C26.3294 10.3984 27.5441 10.9623 28.398 11.8742C29.4442 11.6719 30.4475 11.29 31.3634 10.7453C31.0147 11.8253 30.2842 12.741 29.3087 13.3209C30.2366 13.2151 31.1435 12.9711 31.9992 12.597C31.3601 13.5287 30.5682 14.3458 29.6568 15.0137Z" fill="#F49E10"/>
</svg>
